<?xml version="1.0" encoding="UTF-8"?> <svg xmlns="http://www.w3.org/2000/svg" xmlns:xlink="http://www.w3.org/1999/xlink" width="437px" height="456px" viewBox="0 0 437 456" version="1.1"><g id="surface1"><path style="fill-rule:nonzero;fill:rgb(85.490196%,14.509804%,10.980392%);fill-opacity:1;stroke-width:6.875;stroke-linecap:butt;stroke-linejoin:miter;stroke:rgb(85.490196%,14.509804%,10.980392%);stroke-opacity:1;stroke-miterlimit:8;" d="M 1511.490757 1856.49522 L 2891.50312 1856.49522 L 2891.50312 2344.501465 L 1511.490757 2344.501465 Z M 1511.490757 1856.49522 " transform="matrix(0.198546,0,0,0.19852,-218.202181,-17.668263)"></path><path style="fill-rule:nonzero;fill:rgb(85.490196%,14.509804%,10.980392%);fill-opacity:1;stroke-width:6.875;stroke-linecap:butt;stroke-linejoin:miter;stroke:rgb(85.490196%,14.509804%,10.980392%);stroke-opacity:1;stroke-miterlimit:8;" d="M 2776.507008 2187.499657 L 2953.496746 2187.499657 L 2953.496746 2350.502913 L 2776.507008 2350.502913 Z M 2776.507008 2187.499657 " transform="matrix(0.198546,0,0,0.19852,-218.202181,-17.668263)"></path><path style="fill-rule:nonzero;fill:rgb(85.490196%,14.509804%,10.980392%);fill-opacity:1;stroke-width:6.875;stroke-linecap:butt;stroke-linejoin:miter;stroke:rgb(85.490196%,14.509804%,10.980392%);stroke-opacity:1;stroke-miterlimit:8;" d="M 1442.49309 2187.499657 L 1527.505614 2187.499657 L 1527.505614 2337.496496 L 1442.49309 2337.496496 Z M 1442.49309 2187.499657 " transform="matrix(0.198546,0,0,0.19852,-218.202181,-17.668263)"></path><path style=" stroke:none;fill-rule:evenodd;fill:rgb(85.490196%,14.509804%,10.980392%);fill-opacity:1;" d="M 7.941406 218.96875 C 7.941406 102.203125 102.613281 7.542969 219.394531 7.542969 C 336.175781 7.542969 430.84375 102.203125 430.84375 218.96875 C 430.84375 335.734375 336.175781 430.390625 219.394531 430.390625 C 102.613281 430.390625 7.941406 335.734375 7.941406 218.96875 Z M 7.941406 218.96875 "></path><path style=" stroke:none;fill-rule:evenodd;fill:rgb(85.490196%,14.509804%,10.980392%);fill-opacity:1;" d="M 213.996094 0 L 223.890625 0 C 248.535156 0.683594 273.175781 5.394531 296.179688 14.265625 C 347.851562 33.789062 391.335938 73.859375 415.292969 123.558594 C 426.078125 145.605469 432.972656 169.566406 435.632812 193.9375 C 436.453125 197.621094 435.5 201.511719 437 205.0625 L 437 234.347656 L 436.316406 232.914062 C 435.632812 249.503906 432.359375 265.886719 427.582031 281.789062 C 415.429688 321.65625 391.472656 357.90625 359.59375 384.734375 C 358.910156 385.484375 357.476562 386.234375 358.160156 387.53125 C 367.375 408.761719 376.589844 430.058594 385.804688 451.289062 C 386.554688 452.792969 387.171875 454.363281 387.71875 456 L 48.191406 456 C 58.089844 432.925781 68.125 409.855469 78.15625 386.78125 C 78.5 386.097656 78.433594 385.550781 77.882812 385.074219 C 62.117188 371.898438 48.394531 356.335938 36.859375 339.335938 C 18.222656 311.621094 6.144531 279.539062 1.773438 246.429688 C 0.820312 239.058594 0.410156 231.6875 0 224.3125 L 0 212.503906 C 0.546875 197.554688 2.253906 182.675781 5.800781 168.132812 C 16.109375 123.964844 40.886719 83.484375 75.085938 53.792969 C 105.871094 26.757812 144.4375 8.738281 184.914062 2.457031 C 194.675781 1.09375 204.300781 0.273438 213.996094 0 Z M 193.3125 15.496094 C 162.117188 19.457031 131.8125 30.648438 105.667969 48.125 C 76.109375 67.785156 51.671875 95.226562 35.769531 127.039062 C 23.550781 151.136719 16.382812 177.757812 14.539062 204.792969 C 13.855469 220.285156 14.128906 235.917969 16.792969 251.207031 C 24.847656 301.722656 52.96875 348.621094 93.515625 379.75 C 94.472656 380.570312 95.703125 381.25 96.316406 382.34375 C 88.601562 399.820312 80.820312 417.292969 73.175781 434.835938 C 72.285156 437.023438 71.058594 439.003906 70.582031 441.324219 C 169.011719 441.257812 267.375 441.257812 365.804688 441.324219 C 357.273438 421.664062 348.742188 402.003906 340.410156 382.277344 C 378.84375 353.808594 406.828125 311.554688 417.683594 264.929688 C 428.671875 218.375 422.664062 167.859375 400.550781 125.398438 C 388.875 102.53125 372.769531 82.121094 353.515625 65.125 C 329.625 43.960938 300.683594 28.535156 269.832031 20.617188 C 244.917969 13.859375 218.839844 12.628906 193.3125 15.496094 Z M 193.3125 15.496094 "></path><path style=" stroke:none;fill-rule:evenodd;fill:rgb(85.490196%,14.509804%,10.980392%);fill-opacity:1;" d="M 224.636719 144.007812 L 262.820312 105.746094 L 264.660156 103.355469 L 257.570312 96.113281 L 221.433594 59.898438 L 218.566406 57.371094 L 216.660156 58.738281 L 176.769531 98.707031 L 172.339844 103.765625 L 218.636719 149.882812 Z M 200.292969 126.3125 L 207.25 104.789062 L 188.976562 91.464844 L 211.613281 91.464844 L 218.566406 69.945312 L 225.523438 91.464844 L 248.160156 91.464844 L 229.886719 104.789062 L 236.910156 126.515625 L 218.636719 113.054688 Z M 200.292969 126.3125 "></path><path style=" stroke:none;fill-rule:evenodd;fill:rgb(85.490196%,14.509804%,10.980392%);fill-opacity:1;" d="M 159.234375 412.128906 L 165.390625 412.128906 L 162.449219 403.589844 Z M 159.234375 412.128906 "></path><path style=" stroke:none;fill-rule:evenodd;fill:rgb(85.490196%,14.509804%,10.980392%);fill-opacity:1;" d="M 206.089844 343.636719 L 209.269531 337.769531 L 209.128906 171.125 L 204.503906 177.335938 L 204.503906 339.132812 Z M 206.089844 343.636719 "></path><path style=" stroke:none;fill-rule:evenodd;fill:rgb(85.490196%,14.509804%,10.980392%);fill-opacity:1;" d="M 78.425781 441.308594 L 352.816406 441.308594 C 261.375 441.046875 169.9375 441.046875 78.425781 441.308594 Z M 78.425781 441.308594 "></path><path style=" stroke:none;fill-rule:evenodd;fill:rgb(85.490196%,14.509804%,10.980392%);fill-opacity:1;" d="M 289.511719 363.9375 C 285.691406 370.832031 281.804688 377.800781 277.984375 384.695312 C 267.410156 384.898438 256.90625 384.761719 246.332031 384.761719 C 242.511719 377.800781 238.554688 370.902344 234.800781 363.9375 C 224.09375 364.007812 213.382812 363.800781 202.605469 364.007812 C 198.855469 370.902344 194.898438 377.660156 191.28125 384.625 C 180.503906 384.898438 169.726562 384.695312 159.015625 384.695312 C 155.265625 377.730469 151.308594 370.902344 147.554688 363.9375 C 136.640625 364.007812 125.660156 363.734375 114.746094 364.074219 C 111.742188 372.0625 108.0625 379.710938 104.855469 387.628906 C 98.644531 402.035156 92.507812 416.511719 86.367188 430.988281 C 174.433594 430.988281 262.496094 430.988281 350.632812 430.988281 C 341.148438 408.589844 331.054688 386.46875 321.710938 364.074219 C 311 363.664062 300.289062 364.074219 289.511719 363.9375 Z M 162.425781 390.769531 L 167.339844 390.839844 L 162.222656 395.480469 L 159.765625 395.480469 Z M 127.296875 401.695312 L 120.269531 401.695312 L 120.132812 421.496094 L 115.769531 421.496094 L 115.835938 401.765625 L 109.015625 401.628906 L 108.945312 397.597656 L 127.296875 397.734375 Z M 147.964844 421.496094 L 143.941406 421.496094 L 143.804688 411.1875 L 134.597656 411.1875 L 134.460938 421.496094 L 130.230469 421.496094 L 130.160156 397.667969 L 134.527344 397.667969 L 134.664062 406.882812 L 143.53125 406.953125 L 143.53125 397.53125 L 148.238281 397.667969 Z M 169.25 421.496094 L 166.996094 415.964844 L 157.652344 415.964844 L 155.878906 421.359375 L 151.171875 421.496094 L 152.058594 418.289062 L 159.835938 397.667969 L 164.746094 397.871094 L 172.457031 417.332031 L 173.613281 421.429688 Z M 180.707031 421.496094 L 176.480469 421.496094 L 176.617188 397.597656 C 176.617188 397.597656 179.34375 397.667969 180.707031 397.667969 C 180.914062 405.585938 180.707031 421.496094 180.707031 421.496094 Z M 207.996094 421.496094 L 198.785156 405.996094 L 198.511719 421.496094 L 194.214844 421.429688 L 194.351562 397.597656 L 198.855469 397.667969 L 207.925781 413.164062 L 207.996094 397.53125 L 212.632812 397.460938 L 212.703125 421.496094 Z M 238.488281 417.945312 C 235.691406 420.472656 231.9375 421.90625 228.117188 421.703125 C 223.957031 421.835938 219.660156 419.515625 218.023438 415.625 C 215.773438 410.570312 216.25 403.8125 220.546875 399.921875 C 223.683594 396.917969 228.664062 396.917969 232.621094 397.941406 C 235.554688 398.625 237.257812 401.421875 238.007812 404.152344 C 236.507812 404.492188 235.007812 404.769531 233.507812 405.042969 C 232.824219 403.8125 232.210938 402.378906 230.777344 401.832031 C 226.890625 399.578125 221.503906 403.0625 221.503906 407.429688 C 221.433594 409.957031 221.160156 412.6875 222.730469 414.804688 C 224.980469 418.558594 230.574219 418.082031 233.644531 415.691406 C 233.644531 414.667969 233.644531 413.714844 233.644531 412.6875 C 231.871094 412.621094 230.027344 412.621094 228.253906 412.621094 C 228.253906 411.253906 228.253906 409.820312 228.253906 408.453125 C 231.394531 408.523438 238.417969 408.523438 238.417969 408.523438 C 238.417969 408.523438 238.417969 415.078125 238.488281 417.945312 Z M 260.65625 414.328125 C 260.65625 417.671875 258.203125 421.085938 254.789062 421.496094 C 252.539062 421.703125 250.21875 421.835938 248.039062 421.359375 C 245.515625 420.609375 243.058594 418.492188 242.855469 415.691406 C 241.898438 410.230469 242.238281 397.667969 242.238281 397.667969 L 246.945312 397.597656 C 246.945312 397.597656 246.878906 407.839844 247.082031 412.960938 C 247.148438 414.667969 247.765625 416.648438 249.539062 417.398438 C 251.105469 417.742188 252.8125 417.742188 254.382812 417.46875 C 255.949219 415.964844 256.222656 413.714844 256.292969 411.664062 C 256.359375 407.019531 256.429688 397.804688 256.429688 397.804688 C 256.429688 397.804688 259.292969 397.734375 260.726562 397.804688 C 260.65625 403.265625 260.792969 408.796875 260.65625 414.328125 Z M 294.148438 390.90625 L 297.152344 390.839844 L 301.039062 395.550781 L 297.699219 395.824219 L 295.789062 393.363281 L 294.015625 395.6875 L 290.808594 395.753906 Z M 276.277344 410.914062 L 276.277344 421.496094 L 271.367188 421.566406 L 271.433594 410.980469 L 263.453125 397.804688 L 268.640625 397.667969 L 274.09375 406.882812 L 279.484375 398.007812 L 284.738281 397.734375 Z M 304.179688 421.566406 L 287.191406 421.496094 L 287.191406 397.667969 L 304.109375 397.667969 L 304.246094 401.214844 L 291.898438 401.214844 L 291.898438 407.019531 L 303.359375 407.15625 L 303.359375 410.980469 L 291.695312 411.1875 L 291.761719 417.398438 L 304.246094 417.332031 Z M 322.390625 397.804688 L 326.691406 397.804688 L 326.621094 421.566406 L 322.1875 421.566406 L 312.910156 406.816406 L 312.910156 421.703125 L 308.339844 421.703125 L 308.339844 397.804688 L 312.910156 397.804688 L 322.460938 413.644531 Z M 322.390625 397.804688 "></path><path style=" stroke:none;fill-rule:evenodd;fill:rgb(85.490196%,14.509804%,10.980392%);fill-opacity:1;" d="M 109.003906 353.914062 C 123.953125 354.121094 138.898438 353.984375 153.84375 353.984375 C 157.054688 359.238281 165.996094 374.867188 165.996094 374.867188 C 165.996094 374.867188 178.351562 374.867188 184.558594 374.9375 C 188.179688 368.449219 196.230469 353.984375 196.230469 353.984375 C 196.230469 353.984375 241.347656 353.640625 241.894531 354.664062 C 244.214844 359.375 246.945312 363.878906 249.46875 368.519531 C 250.695312 370.703125 251.789062 372.957031 253.222656 375.003906 C 259.230469 374.867188 265.234375 374.9375 271.242188 375.003906 C 275.539062 368.179688 279.023438 360.875 283.253906 353.984375 C 298.199219 354.121094 313.148438 354.121094 328.09375 353.984375 C 330.894531 360.058594 333.691406 366.132812 335.875 372.410156 C 336.21875 372.480469 336.832031 372.546875 337.171875 372.546875 C 366.796875 349.820312 389.660156 318.492188 402.148438 283.273438 C 412.796875 253.652344 415.867188 221.503906 411.363281 190.378906 C 407.269531 162.398438 397.03125 135.234375 381.332031 111.617188 C 365.566406 87.59375 344.40625 67.1875 319.90625 52.171875 C 296.902344 38.109375 270.96875 28.761719 244.214844 25.347656 C 210.425781 20.773438 175.414062 25.347656 143.882812 38.519531 C 113.988281 51.011719 87.367188 71.078125 67.027344 96.261719 C 53.515625 112.984375 42.796875 131.890625 35.429688 152.09375 C 24.644531 181.851562 21.230469 214.335938 25.804688 245.734375 C 32.425781 294.125 58.496094 339.308594 96.582031 369.816406 C 97.878906 370.769531 98.972656 372.070312 100.542969 372.683594 C 103.542969 366.542969 105.796875 359.988281 109.003906 353.914062 Z M 348.367188 300.882812 C 348.707031 301.632812 348.914062 302.449219 349.050781 303.269531 C 325.433594 303.476562 301.816406 303.132812 278.269531 303.40625 C 278.339844 304.910156 278.40625 306.480469 278.40625 307.980469 C 302.980469 307.980469 327.617188 307.914062 352.1875 307.980469 C 356.695312 316.851562 360.71875 325.929688 363.792969 335.347656 C 333.078125 335.347656 302.363281 335.347656 271.652344 335.347656 C 271.582031 333.097656 271.582031 330.914062 271.515625 328.660156 C 299.085938 328.453125 326.660156 328.660156 354.234375 328.59375 C 352.597656 323.949219 350.277344 319.652344 348.433594 315.078125 C 347.070312 314.667969 345.636719 314.328125 344.203125 314.601562 C 341.953125 315.007812 339.632812 314.464844 337.378906 314.464844 C 331.507812 314.941406 325.570312 314.125 319.632812 314.738281 C 314.378906 314.394531 309.191406 314.464844 303.933594 314.601562 C 296.222656 314.464844 288.441406 314.328125 280.726562 314.804688 C 277.65625 314.601562 274.449219 315.351562 271.445312 314.328125 C 271.582031 308.390625 271.515625 302.519531 271.445312 296.582031 C 293.558594 296.308594 315.675781 296.582031 337.789062 296.445312 C 335.875 292.351562 333.144531 288.734375 330.894531 284.84375 C 311.101562 284.773438 291.308594 284.84375 271.515625 284.84375 C 271.515625 278.835938 271.515625 272.898438 271.515625 266.890625 C 276.632812 266.550781 281.753906 267.234375 286.871094 266.753906 C 296.902344 267.640625 306.9375 266.347656 316.902344 266.890625 C 317.242188 266.824219 317.925781 266.753906 318.265625 266.753906 C 315.945312 262.796875 312.875 259.453125 310.347656 255.628906 C 308.234375 255.015625 306.050781 255.5625 303.867188 255.359375 C 294.105469 255.496094 284.347656 255.359375 274.585938 255.425781 C 273.492188 255.496094 272.472656 255.289062 271.445312 254.949219 C 271.652344 249.007812 271.515625 243.070312 271.445312 237.132812 C 279.226562 236.863281 286.9375 237.066406 294.71875 237.066406 C 294.789062 235.972656 293.699219 235.359375 293.082031 234.609375 C 290.417969 231.605469 287.6875 228.601562 284.890625 225.667969 C 280.457031 225.191406 275.953125 225.667969 271.515625 225.464844 C 271.445312 223.210938 271.375 221.027344 271.445312 218.773438 C 276.839844 218.773438 282.160156 218.84375 287.554688 218.773438 C 294.175781 225.667969 300.519531 232.832031 306.597656 240.203125 C 307.550781 241.296875 308.710938 242.253906 309.191406 243.6875 C 298.949219 243.753906 288.714844 243.753906 278.476562 243.6875 C 278.40625 245.121094 278.269531 246.621094 278.203125 248.054688 C 280.113281 248.804688 282.09375 248.394531 284.070312 248.394531 C 293.832031 248.464844 303.523438 248.394531 313.285156 248.464844 C 319.15625 256.792969 325.707031 264.640625 331.167969 273.242188 C 313.558594 273.171875 295.949219 273.242188 278.339844 273.171875 C 278.339844 274.808594 278.339844 276.378906 278.269531 278.015625 C 297.039062 278.152344 315.808594 277.949219 334.578125 278.085938 C 339.355469 285.660156 344 293.171875 348.367188 300.882812 Z M 108.800781 131.890625 L 111.054688 130.730469 L 120.949219 140.625 L 122.929688 140.625 L 133.234375 130.320312 L 139.242188 136.53125 L 127.980469 147.519531 L 139.378906 158.984375 L 150.84375 147.859375 L 156.847656 153.660156 L 145.589844 165.195312 L 156.988281 176.527344 L 168.109375 165.265625 L 173.640625 170.65625 L 173.230469 172.429688 L 162.992188 182.738281 L 173.570312 193.179688 L 175.414062 193.179688 L 190.429688 178.097656 L 129.136719 116.738281 L 127.296875 113.53125 L 132.617188 108.207031 L 144.15625 119.46875 L 154.734375 108.957031 L 155.691406 108.683594 L 160.945312 113.734375 L 161.148438 114.554688 L 150.433594 125.609375 L 161.355469 136.667969 L 165.039062 133.527344 L 172.886719 125.609375 L 178.621094 131.34375 L 177.667969 133.117188 L 167.90625 142.742188 L 176.917969 152.296875 L 179.371094 154.070312 L 189.679688 143.832031 L 191.660156 144.3125 L 196.574219 149.292969 L 185.242188 160.417969 L 196.640625 171.953125 L 210.972656 157.621094 L 212.203125 155.710938 L 209.269531 152.570312 L 149.886719 93.191406 L 149.546875 91.414062 L 155.007812 86.160156 L 166.0625 97.421875 L 177.597656 85.886719 L 166.335938 74.488281 L 171.796875 69.164062 L 173.777344 69.984375 L 183.058594 79.265625 L 184.832031 78.71875 L 194.320312 69.164062 L 193.773438 67.117188 L 183.878906 57.359375 L 189.882812 51.214844 L 199.710938 61.113281 L 201.828125 61.65625 L 212.273438 51.214844 L 209.8125 48.28125 L 201.28125 39.613281 L 207.082031 33.675781 L 218.550781 44.9375 L 229.605469 33.945312 L 236.089844 39.679688 L 224.828125 51.214844 L 234.726562 61.042969 L 236.773438 61.863281 L 247.214844 51.285156 L 252.8125 56.539062 L 252.335938 58.382812 L 242.78125 67.9375 L 242.644531 68.824219 L 253.359375 79.746094 L 264.960938 68.960938 L 270.832031 74.488281 L 259.640625 85.957031 L 271.039062 97.488281 L 282.570312 86.09375 L 287.894531 91.6875 L 286.9375 93.734375 L 226.875 153.730469 L 224.691406 156.324219 L 240.390625 171.816406 L 242.164062 170.453125 L 251.925781 160.828125 L 240.9375 149.429688 L 246.535156 143.492188 L 250.148438 146.5625 L 258.066406 154.277344 L 269.398438 142.878906 L 258.207031 131.753906 L 264.277344 125.679688 L 275.746094 136.941406 L 285.917969 126.632812 L 286.324219 124.722656 L 275.953125 114.484375 L 281.070312 108.820312 L 283.457031 109.777344 L 292.945312 119.332031 L 304.480469 108 L 310.417969 114.074219 L 246.667969 178.164062 L 261.277344 192.769531 L 263.1875 193.792969 L 273.425781 183.351562 L 272.742188 181.304688 L 262.84375 171.339844 L 268.988281 165.265625 L 280.046875 176.527344 L 291.582031 165.195312 L 280.457031 153.660156 L 286.121094 148.203125 L 288.167969 149.5 L 297.382812 158.710938 L 298.066406 158.78125 L 309.191406 147.519531 L 298.066406 136.394531 L 303.59375 130.730469 L 304.277344 130.796875 L 314.511719 140.964844 L 316.5625 140.421875 L 325.023438 131.753906 L 327.003906 130.59375 L 332.257812 135.847656 L 332.121094 136.734375 L 263.9375 205.125 L 263.9375 338.558594 L 265.710938 344.085938 L 254.792969 344.289062 L 256.566406 338.558594 L 256.566406 199.320312 L 251.789062 195.566406 L 251.859375 337.941406 L 253.90625 344.289062 L 242.917969 344.222656 L 244.828125 338.558594 L 244.828125 187.652344 L 240.390625 183.421875 L 240.253906 217.75 L 240.253906 339.242188 L 241.824219 344.359375 L 219.371094 344.359375 L 220.9375 338.558594 L 220.9375 163.761719 L 219.234375 161.988281 L 216.367188 163.898438 L 216.296875 338.625 L 218.207031 344.359375 L 195.414062 344.425781 L 197.050781 339.375 L 197.117188 183.691406 L 192.410156 188.128906 L 192.410156 339.375 L 194.183594 344.289062 L 183.398438 344.289062 L 185.3125 338.558594 L 185.3125 211.675781 L 185.175781 195.773438 L 180.804688 199.800781 L 180.601562 338.558594 L 182.375 344.289062 L 171.113281 344.085938 L 173.230469 338.558594 L 173.230469 205.398438 L 171.523438 202.667969 L 104.707031 136.53125 Z M 73.785156 335.347656 C 76.175781 325.792969 80.746094 316.921875 84.980469 308.050781 C 109.480469 307.84375 134.050781 308.117188 158.554688 307.914062 C 159.238281 306.546875 158.761719 304.839844 158.894531 303.269531 C 136.917969 303.269531 114.941406 303.269531 92.964844 303.269531 C 91.191406 303.203125 89.347656 303.613281 87.710938 302.726562 C 92.691406 294.464844 97.46875 286.070312 102.996094 278.152344 C 121.632812 278.222656 140.265625 278.152344 158.894531 278.152344 C 158.894531 276.582031 158.894531 274.945312 158.894531 273.375 C 141.492188 273.308594 124.019531 273.308594 106.617188 273.375 C 106.820312 272.285156 107.367188 271.261719 107.980469 270.375 C 113.101562 263.207031 118.152344 256.039062 123.609375 249.078125 C 124.292969 248.328125 125.519531 248.667969 126.410156 248.53125 C 137.261719 248.394531 148.113281 248.804688 158.964844 248.328125 C 158.964844 246.824219 158.964844 245.324219 158.964844 243.820312 C 148.660156 243.6875 138.351562 243.890625 128.046875 243.753906 C 129.003906 241.84375 130.570312 240.480469 131.9375 238.839844 C 137.601562 231.945312 143.472656 225.257812 149.683594 218.84375 C 155.007812 218.707031 160.328125 218.84375 165.65625 218.773438 C 165.722656 221.027344 165.722656 223.210938 165.65625 225.464844 C 161.355469 225.53125 156.988281 225.324219 152.6875 225.53125 C 149.273438 228.671875 146.339844 232.359375 143.199219 235.769531 C 143.199219 236.109375 143.128906 236.792969 143.0625 237.132812 C 150.640625 236.929688 158.214844 236.929688 165.789062 237.066406 C 165.585938 243.070312 165.859375 249.078125 165.65625 255.085938 C 158.28125 255.699219 150.910156 255.085938 143.539062 255.289062 C 139.035156 254.949219 134.464844 255.425781 129.957031 255.152344 C 128.933594 255.015625 127.980469 255.152344 126.953125 255.496094 C 124.566406 259.113281 121.632812 262.386719 119.378906 266.074219 L 119.308594 266.960938 C 124.429688 266.140625 129.617188 267.097656 134.734375 266.550781 C 140.605469 266.890625 146.542969 266.550781 152.414062 266.6875 C 156.847656 266.550781 161.355469 266.210938 165.789062 266.890625 C 165.65625 272.898438 165.722656 278.835938 165.722656 284.84375 C 145.996094 284.84375 126.269531 284.84375 106.546875 284.84375 C 104.160156 288.664062 101.496094 292.28125 99.449219 296.308594 C 121.5625 296.378906 143.675781 296.171875 165.789062 296.445312 C 165.585938 302.449219 165.722656 308.390625 165.722656 314.394531 C 140.332031 314.394531 114.941406 314.464844 89.550781 314.394531 C 87.230469 318.898438 84.910156 323.542969 83.480469 328.453125 C 110.914062 328.59375 138.351562 328.320312 165.789062 328.59375 C 165.722656 330.84375 165.722656 333.097656 165.789062 335.28125 C 135.007812 335.347656 104.429688 335.417969 73.785156 335.347656 Z M 73.785156 335.347656 "></path><path style=" stroke:none;fill-rule:evenodd;fill:rgb(85.490196%,14.509804%,10.980392%);fill-opacity:1;" d="M 232.695312 331.804688 L 232.628906 175.351562 L 228.328125 171.324219 L 228.328125 338.632812 L 230.992188 344.234375 Z M 232.695312 331.804688 "></path><path style=" stroke:none;fill-rule:evenodd;fill:rgb(98.823529%,96.078431%,1.568627%);fill-opacity:1;" d="M 417.542969 264.828125 C 428.53125 218.300781 422.527344 167.816406 400.417969 125.3125 C 388.75 102.527344 372.644531 82.0625 353.402344 65.074219 C 329.519531 43.925781 300.589844 28.507812 269.746094 20.59375 C 244.910156 13.90625 218.84375 12.679688 193.324219 15.546875 C 162.140625 19.503906 131.84375 30.691406 105.707031 48.15625 C 76.164062 67.804688 51.734375 95.226562 35.832031 127.019531 C 23.621094 151.238281 16.457031 177.777344 14.613281 204.792969 C 13.929688 220.277344 14.203125 235.902344 16.863281 251.183594 C 24.847656 301.257812 52.550781 347.714844 92.539062 378.824219 C 92.878906 379.097656 93.222656 379.371094 93.5625 379.644531 C 94.519531 380.460938 95.746094 381.144531 96.359375 382.234375 C 91.039062 394.3125 85.714844 406.386719 80.324219 418.460938 C 77.933594 423.851562 75.546875 429.238281 73.226562 434.628906 C 72.339844 436.8125 71.113281 438.792969 70.636719 441.109375 C 73.226562 441.109375 75.886719 441.109375 78.480469 441.109375 C 169.917969 441.042969 261.355469 441.109375 352.859375 441.109375 C 357.15625 441.109375 361.457031 441.109375 365.753906 441.109375 C 361.457031 431.21875 357.089844 421.257812 352.859375 411.296875 C 348.695312 401.542969 344.53125 391.855469 340.371094 382.097656 C 341.871094 381.007812 343.304688 379.847656 344.738281 378.757812 C 380.902344 350.445312 407.105469 309.648438 417.542969 264.828125 Z M 25.871094 245.722656 C 21.367188 214.34375 24.710938 181.9375 35.5625 152.125 C 42.929688 131.929688 53.644531 113.035156 67.152344 96.320312 C 87.488281 71.144531 114.101562 51.089844 143.988281 38.671875 C 175.511719 25.503906 210.519531 20.933594 244.296875 25.503906 C 271.042969 28.917969 296.972656 38.261719 319.96875 52.316406 C 344.464844 67.324219 365.617188 87.722656 381.382812 111.738281 C 397.074219 135.34375 407.308594 162.425781 411.402344 190.464844 C 415.910156 221.574219 412.835938 253.707031 402.191406 283.316406 C 389.703125 318.449219 366.847656 349.832031 337.234375 372.546875 C 336.890625 372.480469 336.277344 372.410156 335.9375 372.410156 C 333.753906 366.066406 330.953125 359.996094 328.15625 353.992188 C 313.210938 354.128906 298.269531 354.128906 283.324219 353.992188 C 279.09375 360.882812 275.617188 368.183594 271.316406 375.003906 C 265.3125 374.9375 259.308594 374.867188 253.300781 375.003906 C 251.800781 372.957031 250.707031 370.707031 249.546875 368.523438 C 247.023438 363.886719 244.296875 359.449219 241.972656 354.671875 C 241.429688 353.652344 196.324219 353.992188 196.324219 353.992188 C 196.324219 353.992188 188.273438 368.453125 184.65625 374.9375 C 178.449219 374.800781 166.097656 374.867188 166.097656 374.867188 C 166.097656 374.867188 157.226562 359.246094 153.949219 353.992188 C 139.007812 354.058594 124.0625 354.128906 109.117188 353.921875 C 105.914062 359.996094 103.660156 366.546875 100.523438 372.683594 C 99.019531 372.070312 97.929688 370.777344 96.566406 369.820312 C 58.558594 339.257812 32.488281 294.027344 25.871094 245.722656 Z M 350.675781 430.945312 C 262.582031 430.945312 174.492188 430.945312 86.328125 430.945312 C 92.472656 416.484375 98.613281 402.019531 104.820312 387.625 C 108.027344 379.710938 111.710938 372.070312 114.714844 364.089844 C 125.632812 363.746094 136.621094 364.019531 147.535156 363.953125 C 151.289062 370.910156 155.246094 377.800781 159 384.691406 C 169.78125 384.691406 180.5625 384.894531 191.273438 384.625 C 194.894531 377.664062 198.851562 370.910156 202.601562 364.019531 C 213.316406 363.816406 224.03125 363.953125 234.8125 363.953125 C 238.5625 370.910156 242.519531 377.800781 246.34375 384.757812 C 256.917969 384.757812 267.496094 384.894531 278.003906 384.691406 C 281.824219 377.800781 285.644531 370.84375 289.535156 363.953125 C 300.246094 364.089844 311.027344 363.679688 321.675781 364.15625 C 331.160156 386.464844 341.191406 408.570312 350.675781 430.945312 Z M 350.675781 430.945312 "></path><path style=" stroke:none;fill-rule:evenodd;fill:rgb(98.823529%,96.078431%,1.568627%);fill-opacity:1;" d="M 173.285156 205.46875 L 173.285156 338.632812 L 171.171875 344.15625 L 182.429688 344.363281 L 180.65625 338.632812 L 180.726562 199.804688 L 185.09375 195.777344 L 185.230469 211.683594 L 185.230469 338.5625 L 183.316406 344.292969 L 194.101562 344.292969 L 192.328125 339.382812 L 192.328125 188.136719 L 197.035156 183.699219 L 196.96875 339.382812 L 195.328125 344.433594 L 218.125 344.363281 L 216.210938 338.632812 L 216.28125 163.90625 L 219.148438 161.996094 L 220.855469 163.769531 L 220.855469 338.5625 L 219.285156 344.363281 L 241.738281 344.363281 L 240.167969 339.246094 L 240.167969 217.757812 L 240.304688 183.425781 L 244.742188 187.65625 L 244.742188 338.5625 L 242.828125 344.226562 L 253.820312 344.292969 L 251.769531 337.949219 L 251.703125 195.574219 L 256.480469 199.328125 L 256.480469 338.5625 L 254.703125 344.292969 L 265.625 344.089844 L 263.851562 338.5625 L 263.851562 205.128906 L 332.03125 136.742188 L 332.167969 135.851562 L 326.914062 130.597656 L 325.070312 131.828125 L 316.539062 140.425781 L 314.492188 140.972656 L 304.253906 130.804688 L 303.570312 130.734375 L 298.042969 136.398438 L 309.167969 147.523438 L 298.042969 158.785156 L 297.359375 158.71875 L 288.214844 149.570312 L 286.167969 148.277344 L 280.503906 153.734375 L 291.628906 165.269531 L 280.164062 176.667969 L 269.105469 165.339844 L 262.964844 171.414062 L 272.925781 181.308594 L 273.609375 183.355469 L 263.375 193.800781 L 261.460938 192.777344 L 246.722656 178.238281 L 310.53125 114.285156 L 304.59375 108.210938 L 292.992188 119.542969 L 283.507812 109.984375 L 281.117188 109.03125 L 276 114.695312 L 286.371094 124.933594 L 285.964844 126.84375 L 275.792969 137.148438 L 264.328125 125.753906 L 258.253906 131.828125 L 269.515625 142.882812 L 258.1875 154.28125 L 250.269531 146.570312 L 246.652344 143.496094 L 241.058594 149.4375 L 252.042969 160.832031 L 242.285156 170.457031 L 240.511719 171.824219 L 224.8125 156.328125 L 226.996094 153.734375 L 287.054688 93.742188 L 288.011719 91.695312 L 282.6875 86.097656 L 271.15625 97.5625 L 259.757812 86.03125 L 270.949219 74.5625 L 265.011719 69.035156 L 253.410156 79.820312 L 242.695312 68.898438 L 242.828125 68.011719 L 252.386719 58.457031 L 252.863281 56.613281 L 247.265625 51.359375 L 236.757812 61.9375 L 234.710938 61.117188 L 224.882812 51.289062 L 236.144531 39.753906 L 229.660156 34.019531 L 218.601562 45.011719 L 207.136719 33.75 L 201.335938 39.6875 L 209.867188 48.355469 L 212.324219 51.289062 L 201.882812 61.800781 L 199.765625 61.253906 L 189.9375 51.289062 L 183.933594 57.363281 L 193.757812 67.261719 L 194.304688 69.308594 L 184.820312 78.863281 L 183.046875 79.410156 L 173.761719 70.125 L 171.785156 69.308594 L 166.324219 74.632812 L 177.585938 86.03125 L 166.050781 97.5625 L 154.996094 86.300781 L 149.535156 91.558594 L 149.875 93.332031 L 209.25 152.710938 L 212.1875 155.851562 L 210.960938 157.761719 L 196.625 172.09375 L 185.296875 160.492188 L 196.558594 149.300781 L 191.644531 144.316406 L 189.664062 143.839844 L 179.359375 154.078125 L 176.902344 152.300781 L 167.894531 142.746094 L 177.652344 133.125 L 178.609375 131.347656 L 172.875 125.617188 L 165.027344 133.53125 L 161.34375 136.671875 L 150.421875 125.617188 L 161.136719 114.558594 L 160.929688 113.738281 L 155.679688 108.6875 L 154.722656 108.960938 L 144.210938 119.542969 L 132.679688 108.28125 L 127.351562 113.601562 L 129.199219 116.8125 L 190.550781 178.238281 L 175.539062 193.324219 L 173.695312 193.324219 L 163.117188 182.878906 L 173.355469 172.574219 L 173.761719 170.796875 L 168.234375 165.40625 L 157.113281 176.667969 L 145.644531 165.269531 L 156.972656 153.734375 L 150.96875 147.933594 L 139.433594 159.058594 L 128.035156 147.59375 L 139.296875 136.605469 L 133.292969 130.394531 L 123.054688 140.699219 L 121.074219 140.699219 L 111.179688 130.871094 L 108.925781 132.03125 L 104.832031 136.671875 L 171.648438 202.808594 Z M 228.363281 171.414062 L 232.730469 175.441406 L 232.796875 331.804688 L 231.089844 344.15625 L 228.363281 338.632812 Z M 172.261719 103.84375 L 176.699219 98.792969 L 216.625 58.863281 L 218.535156 57.5 L 221.402344 60.027344 L 257.570312 96.199219 L 264.667969 103.433594 L 262.828125 105.824219 L 224.605469 144.042969 L 218.535156 149.980469 Z M 209.117188 171.277344 L 209.183594 338.015625 L 206.046875 343.820312 L 204.542969 339.3125 L 204.476562 177.488281 Z M 209.117188 171.277344 "></path><path style=" stroke:none;fill-rule:evenodd;fill:rgb(98.823529%,96.078431%,1.568627%);fill-opacity:1;" d="M 165.785156 335.429688 C 165.71875 333.179688 165.71875 330.925781 165.785156 328.746094 C 138.3125 328.472656 110.839844 328.746094 83.367188 328.609375 C 84.800781 323.695312 87.125 319.054688 89.445312 314.550781 C 114.871094 314.621094 140.292969 314.550781 165.71875 314.550781 C 165.71875 308.550781 165.582031 302.613281 165.785156 296.609375 C 143.640625 296.402344 121.5 296.609375 99.355469 296.472656 C 101.40625 292.449219 104.140625 288.832031 106.464844 285.011719 C 126.214844 285.011719 145.96875 285.011719 165.71875 285.011719 C 165.71875 279.007812 165.582031 273.070312 165.785156 267.066406 C 161.34375 266.453125 156.832031 266.792969 152.390625 266.863281 C 146.511719 266.726562 140.570312 267 134.691406 266.726562 C 129.566406 267.269531 124.371094 266.25 119.246094 267.136719 L 119.3125 266.25 C 121.566406 262.5625 124.507812 259.289062 126.898438 255.671875 C 127.855469 255.332031 128.878906 255.195312 129.90625 255.332031 C 134.484375 255.605469 138.996094 255.128906 143.507812 255.46875 C 150.886719 255.195312 158.269531 255.8125 165.648438 255.265625 C 165.851562 249.257812 165.582031 243.257812 165.785156 237.253906 C 158.199219 237.117188 150.613281 237.046875 143.027344 237.320312 C 143.027344 236.980469 143.097656 236.296875 143.164062 235.957031 C 146.308594 232.542969 149.246094 228.859375 152.664062 225.722656 C 156.96875 225.515625 161.34375 225.722656 165.648438 225.652344 C 165.71875 223.402344 165.71875 221.21875 165.648438 218.96875 C 160.316406 219.105469 154.988281 218.96875 149.65625 219.035156 C 143.4375 225.449219 137.5625 232.136719 131.886719 239.027344 C 130.589844 240.664062 128.949219 242.027344 127.992188 243.9375 C 138.3125 244.074219 148.632812 243.9375 158.953125 244.007812 C 158.953125 245.507812 158.953125 247.007812 158.953125 248.507812 C 148.085938 249.054688 137.21875 248.578125 126.351562 248.714844 C 125.464844 248.851562 124.234375 248.441406 123.550781 249.257812 C 118.082031 256.148438 113.027344 263.382812 107.898438 270.546875 C 107.21875 271.433594 106.738281 272.457031 106.535156 273.546875 C 123.960938 273.480469 141.457031 273.480469 158.882812 273.546875 C 158.882812 275.117188 158.882812 276.753906 158.882812 278.324219 C 140.226562 278.324219 121.566406 278.390625 102.910156 278.324219 C 97.445312 286.238281 92.660156 294.632812 87.601562 302.886719 C 89.242188 303.707031 91.085938 303.363281 92.863281 303.429688 C 114.871094 303.429688 136.878906 303.429688 158.882812 303.429688 C 158.746094 304.933594 159.226562 306.640625 158.542969 308.070312 C 134.007812 308.277344 109.402344 308.003906 84.867188 308.207031 C 80.632812 317.078125 76.054688 325.949219 73.660156 335.5 C 104.484375 335.429688 135.101562 335.363281 165.785156 335.429688 Z M 165.785156 335.429688 "></path><path style=" stroke:none;fill-rule:evenodd;fill:rgb(98.823529%,96.078431%,1.568627%);fill-opacity:1;" d="M 278.238281 278.1875 C 278.304688 276.550781 278.304688 274.980469 278.304688 273.34375 C 295.910156 273.410156 313.515625 273.34375 331.121094 273.410156 C 325.660156 264.816406 319.109375 256.96875 313.242188 248.644531 C 303.484375 248.578125 293.792969 248.644531 284.035156 248.578125 C 282.054688 248.507812 280.007812 248.917969 278.167969 248.238281 C 278.304688 246.804688 278.375 245.304688 278.441406 243.871094 C 288.675781 243.9375 298.910156 243.9375 309.148438 243.871094 C 308.667969 242.4375 307.511719 241.480469 306.554688 240.390625 C 300.480469 233.023438 294.136719 225.859375 287.515625 218.96875 C 282.125 218.96875 276.804688 218.96875 271.414062 218.96875 C 271.414062 221.21875 271.414062 223.402344 271.480469 225.652344 C 275.914062 225.789062 280.421875 225.3125 284.855469 225.859375 C 287.652344 228.792969 290.3125 231.792969 293.042969 234.796875 C 293.65625 235.546875 294.683594 236.160156 294.683594 237.253906 C 286.902344 237.253906 279.191406 237.046875 271.414062 237.320312 C 271.480469 243.257812 271.550781 249.191406 271.414062 255.128906 C 272.4375 255.46875 273.460938 255.671875 274.550781 255.605469 C 284.308594 255.535156 294.066406 255.671875 303.824219 255.535156 C 306.007812 255.742188 308.191406 255.128906 310.308594 255.8125 C 312.765625 259.628906 315.902344 263.042969 318.222656 266.929688 C 317.882812 266.929688 317.199219 267.066406 316.859375 267.066406 C 306.828125 266.519531 296.796875 267.816406 286.832031 266.929688 C 281.71875 267.339844 276.597656 266.726562 271.480469 267.066406 C 271.414062 273.070312 271.480469 279.007812 271.480469 285.011719 C 291.269531 285.011719 311.058594 284.945312 330.847656 285.011719 C 333.097656 288.898438 335.828125 292.585938 337.738281 296.609375 C 315.628906 296.679688 293.519531 296.472656 271.414062 296.746094 C 271.480469 302.679688 271.550781 308.550781 271.414062 314.484375 C 274.347656 315.507812 277.625 314.757812 280.691406 314.960938 C 288.402344 314.484375 296.183594 314.621094 303.894531 314.757812 C 309.148438 314.621094 314.335938 314.550781 319.585938 314.894531 C 325.457031 314.210938 331.394531 315.097656 337.328125 314.621094 C 339.582031 314.550781 341.898438 315.097656 344.152344 314.757812 C 345.585938 314.484375 347.019531 314.828125 348.382812 315.234375 C 350.15625 319.804688 352.546875 324.105469 354.183594 328.746094 C 326.617188 328.8125 299.046875 328.609375 271.480469 328.8125 C 271.480469 331.0625 271.550781 333.246094 271.617188 335.5 C 302.324219 335.5 333.03125 335.5 363.738281 335.5 C 360.734375 326.082031 356.640625 317.007812 352.136719 308.140625 C 327.570312 308.070312 302.9375 308.140625 278.375 308.140625 C 278.304688 306.640625 278.304688 305.070312 278.238281 303.570312 C 301.84375 303.292969 325.457031 303.570312 349 303.429688 C 348.863281 302.613281 348.65625 301.792969 348.316406 301.042969 C 343.949219 293.335938 339.308594 285.828125 334.53125 278.460938 C 315.699219 278.1875 297 278.324219 278.238281 278.1875 Z M 278.238281 278.1875 "></path><path style=" stroke:none;fill-rule:evenodd;fill:rgb(98.823529%,96.078431%,1.568627%);fill-opacity:1;" d="M 167.375 390.757812 L 162.398438 390.6875 L 159.632812 395.453125 L 162.1875 395.453125 Z M 167.375 390.757812 "></path><path style=" stroke:none;fill-rule:evenodd;fill:rgb(98.823529%,96.078431%,1.568627%);fill-opacity:1;" d="M 295.894531 393.269531 L 297.820312 395.648438 L 301.195312 395.386719 L 297.269531 390.886719 L 294.242188 390.949219 L 290.871094 395.585938 L 294.175781 395.585938 Z M 295.894531 393.269531 "></path><path style=" stroke:none;fill-rule:evenodd;fill:rgb(98.823529%,96.078431%,1.568627%);fill-opacity:1;" d="M 143.410156 406.878906 L 134.546875 406.8125 L 134.410156 397.574219 L 130.046875 397.574219 L 130.113281 421.457031 L 134.34375 421.457031 L 134.480469 411.125 L 143.683594 411.191406 L 143.820312 421.457031 L 147.910156 421.457031 L 148.117188 397.574219 L 143.410156 397.4375 Z M 143.410156 406.878906 "></path><path style=" stroke:none;fill-rule:evenodd;fill:rgb(98.823529%,96.078431%,1.568627%);fill-opacity:1;" d="M 109 401.652344 L 115.792969 401.785156 L 115.792969 421.457031 L 120.070312 421.457031 L 120.273438 401.71875 L 127.199219 401.71875 L 127.269531 397.773438 L 109 397.636719 Z M 109 401.652344 "></path><path style=" stroke:none;fill-rule:evenodd;fill:rgb(98.823529%,96.078431%,1.568627%);fill-opacity:1;" d="M 164.664062 397.839844 L 159.753906 397.636719 L 151.980469 418.25 L 151.09375 421.457031 L 155.800781 421.320312 L 157.570312 415.929688 L 166.914062 415.929688 L 169.164062 421.457031 L 173.53125 421.390625 L 172.371094 417.292969 Z M 159.277344 412.039062 L 162.414062 403.640625 L 165.34375 412.039062 Z M 159.277344 412.039062 "></path><path style=" stroke:none;fill-rule:evenodd;fill:rgb(98.823529%,96.078431%,1.568627%);fill-opacity:1;" d="M 176.640625 397.636719 L 176.507812 421.457031 L 180.632812 421.457031 C 180.632812 421.457031 180.765625 405.597656 180.566406 397.636719 C 179.304688 397.703125 176.640625 397.636719 176.640625 397.636719 Z M 176.640625 397.636719 "></path><path style=" stroke:none;fill-rule:evenodd;fill:rgb(98.823529%,96.078431%,1.568627%);fill-opacity:1;" d="M 207.941406 397.503906 L 207.875 413.132812 L 198.8125 397.710938 L 194.382812 397.574219 L 194.179688 421.457031 L 198.46875 421.457031 L 198.742188 405.96875 L 207.941406 421.457031 L 212.644531 421.457031 L 212.574219 397.4375 Z M 207.941406 397.503906 "></path><path style=" stroke:none;fill-rule:evenodd;fill:rgb(98.823529%,96.078431%,1.568627%);fill-opacity:1;" d="M 228.46875 408.578125 C 228.46875 409.945312 228.46875 411.3125 228.46875 412.746094 C 230.230469 412.746094 232.066406 412.746094 233.832031 412.8125 C 233.832031 413.839844 233.832031 414.796875 233.832031 415.820312 C 230.707031 418.214844 225.207031 418.691406 222.96875 414.933594 C 221.40625 412.8125 221.675781 410.011719 221.746094 407.554688 C 221.746094 403.179688 227.109375 399.695312 230.980469 401.949219 C 232.40625 402.496094 233.015625 403.929688 233.695312 405.160156 C 235.191406 404.957031 236.683594 404.613281 238.179688 404.273438 C 237.429688 401.539062 235.730469 398.738281 232.8125 398.054688 C 228.875 397.027344 223.917969 397.027344 220.792969 400.035156 C 216.585938 403.929688 216.109375 410.628906 218.28125 415.753906 C 219.910156 419.714844 224.1875 421.972656 228.332031 421.835938 C 232.066406 422.042969 235.867188 420.539062 238.652344 418.078125 C 238.585938 415.207031 238.652344 408.78125 238.652344 408.78125 C 238.652344 408.78125 231.589844 408.648438 228.46875 408.578125 Z M 228.46875 408.578125 "></path><path style=" stroke:none;fill-rule:evenodd;fill:rgb(98.823529%,96.078431%,1.568627%);fill-opacity:1;" d="M 256.410156 397.644531 C 256.410156 397.644531 256.339844 406.84375 256.269531 411.582031 C 256.203125 413.640625 255.933594 415.90625 254.367188 417.414062 C 252.804688 417.691406 251.105469 417.691406 249.539062 417.347656 C 247.839844 416.660156 247.160156 414.601562 247.09375 412.886719 C 246.886719 407.734375 246.957031 397.4375 246.957031 397.4375 L 242.265625 397.507812 C 242.265625 397.507812 241.992188 410.207031 242.878906 415.632812 C 243.082031 418.445312 245.53125 420.574219 248.046875 421.332031 C 250.289062 421.8125 252.53125 421.675781 254.777344 421.46875 C 258.175781 421.054688 260.691406 417.621094 260.625 414.257812 C 260.757812 408.695312 260.625 403.136719 260.691406 397.574219 C 259.261719 397.574219 256.410156 397.644531 256.410156 397.644531 Z M 256.410156 397.644531 "></path><path style=" stroke:none;fill-rule:evenodd;fill:rgb(98.823529%,96.078431%,1.568627%);fill-opacity:1;" d="M 274.09375 406.867188 L 268.644531 397.636719 L 263.46875 397.769531 L 271.503906 410.9375 L 271.4375 421.457031 L 276.339844 421.390625 L 276.339844 410.871094 L 284.714844 397.703125 L 279.472656 397.976562 Z M 274.09375 406.867188 "></path><path style=" stroke:none;fill-rule:evenodd;fill:rgb(98.823529%,96.078431%,1.568627%);fill-opacity:1;" d="M 291.855469 411.179688 L 303.554688 410.976562 L 303.554688 407.097656 L 292.058594 406.960938 L 292.058594 401.175781 L 304.371094 401.175781 L 304.234375 397.636719 L 287.296875 397.636719 L 287.296875 421.390625 L 304.234375 421.457031 L 304.371094 417.304688 L 291.988281 417.304688 Z M 291.855469 411.179688 "></path><path style=" stroke:none;fill-rule:evenodd;fill:rgb(98.823529%,96.078431%,1.568627%);fill-opacity:1;" d="M 308.34375 397.636719 L 308.34375 421.65625 L 312.992188 421.65625 L 312.992188 406.738281 L 322.292969 421.519531 L 326.738281 421.519531 L 326.808594 397.703125 L 322.5 397.773438 L 322.5 413.582031 L 312.925781 397.636719 Z M 308.34375 397.636719 "></path><path style=" stroke:none;fill-rule:evenodd;fill:rgb(98.823529%,96.078431%,1.568627%);fill-opacity:1;" d="M 218.730469 69.878906 L 225.703125 91.378906 L 248.382812 91.378906 L 230.003906 104.691406 L 237.039062 126.257812 L 218.730469 112.949219 L 200.355469 126.257812 L 207.394531 104.691406 L 189.015625 91.378906 L 211.695312 91.378906 Z M 218.730469 69.878906 "></path></g></svg> 