<?xml version="1.0" encoding="UTF-8"?> <svg xmlns="http://www.w3.org/2000/svg" width="40" height="41" viewBox="0 0 40 41" fill="none"><path d="M0 20.875C0 9.82931 8.95431 0.875 20 0.875C31.0457 0.875 40 9.82931 40 20.875C40 31.9207 31.0457 40.875 20 40.875C8.95431 40.875 0 31.9207 0 20.875Z" fill="#F7F7F7"></path><path d="M30.8053 12.0714C29.8647 12.7349 28.8231 13.2424 27.7209 13.5743C27.1293 12.8941 26.343 12.412 25.4685 12.1931C24.5939 11.9743 23.6733 12.0294 22.831 12.3508C21.9888 12.6723 21.2656 13.2447 20.7593 13.9905C20.2529 14.7364 19.9879 15.6198 20 16.5212V17.5036C18.2737 17.5483 16.5631 17.1655 15.0206 16.3891C13.4782 15.6127 12.1516 14.4669 11.1592 13.0537C11.1592 13.0537 7.22997 21.8945 16.0707 25.8237C14.0477 27.1969 11.6377 27.8855 9.19458 27.7883C18.0353 32.6998 28.8407 27.7883 28.8407 16.4918C28.8398 16.2182 28.8135 15.9452 28.7621 15.6765C29.7647 14.6878 30.4722 13.4395 30.8053 12.0714Z" fill="#3289F3"></path></svg> 