<?xml version="1.0" encoding="UTF-8"?> <svg xmlns="http://www.w3.org/2000/svg" width="56" height="57" viewBox="0 0 56 57" fill="none"><path d="M0 28.875C0 13.411 12.536 0.875 28 0.875C43.464 0.875 56 13.411 56 28.875C56 44.339 43.464 56.875 28 56.875C12.536 56.875 0 44.339 0 28.875Z" fill="#FFE4F4"></path><path d="M33.5013 24.0619C35.6897 24.0619 37.7884 24.9313 39.3359 26.4787C40.8833 28.0261 41.7526 30.1249 41.7526 32.3133V41.9399H36.2517V32.3133C36.2517 31.5838 35.9619 30.8842 35.4461 30.3684C34.9303 29.8526 34.2307 29.5628 33.5013 29.5628C32.7718 29.5628 32.0722 29.8526 31.5564 30.3684C31.0406 30.8842 30.7508 31.5838 30.7508 32.3133V41.9399H25.2499V32.3133C25.2499 30.1249 26.1192 28.0261 27.6667 26.4787C29.2141 24.9313 31.3129 24.0619 33.5013 24.0619Z" fill="#D40261"></path><path d="M19.749 25.4372H14.248V41.9399H19.749V25.4372Z" fill="#D40261"></path><path d="M16.9985 21.3115C18.5175 21.3115 19.749 20.08 19.749 18.561C19.749 17.042 18.5175 15.8105 16.9985 15.8105C15.4795 15.8105 14.248 17.042 14.248 18.561C14.248 20.08 15.4795 21.3115 16.9985 21.3115Z" fill="#D40261"></path></svg> 