<?xml version="1.0" encoding="UTF-8"?> <svg xmlns="http://www.w3.org/2000/svg" width="56" height="57" viewBox="0 0 56 57" fill="none"><path d="M0 28.875C0 13.411 12.536 0.875 28 0.875C43.464 0.875 56 13.411 56 28.875C56 44.339 43.464 56.875 28 56.875C12.536 56.875 0 44.339 0 28.875Z" fill="#FFE4F4"></path><path fill-rule="evenodd" clip-rule="evenodd" d="M40.521 19.8393C40.9545 20.3222 41.2624 20.9202 41.4136 21.5729C41.8173 23.9915 42.0133 26.4453 41.999 28.9028C42.007 31.3237 41.8111 33.7403 41.4136 36.1228C41.2624 36.7755 40.9545 37.3735 40.521 37.8564C40.0875 38.3393 39.5437 38.6901 38.9446 38.8733C36.7556 39.5059 27.9997 39.5059 27.9997 39.5059C27.9997 39.5059 19.2438 39.5059 17.0548 38.8733C16.4679 38.6997 15.9323 38.3655 15.4998 37.903C15.0673 37.4405 14.7525 36.8652 14.5859 36.2328C14.1821 33.8142 13.9862 31.3604 14.0004 28.9028C13.9893 26.4636 14.1852 24.0284 14.5859 21.6279C14.737 20.9752 15.0449 20.3772 15.4784 19.8943C15.9119 19.4113 16.4557 19.0606 17.0548 18.8774C19.2438 18.2448 27.9997 18.2448 27.9997 18.2448C27.9997 18.2448 36.7556 18.2448 38.9446 18.8224C39.5437 19.0056 40.0875 19.3563 40.521 19.8393ZM25.2961 33.3686L32.4548 28.9024L25.2961 24.4362L25.2961 33.3686Z" fill="#D40261"></path></svg> 