<svg xmlns="http://www.w3.org/2000/svg" xmlns:xlink="http://www.w3.org/1999/xlink" width="1170" height="629"><defs><path id="a" d="M0 0h1170v525H0z"/><path id="c" d="M0 .5h84.499V85H0z"/><path id="e" d="M.833.27h11.659v11.25H.833z"/><path id="g" d="M0 .498h84.503V85H0z"/><path id="i" d="M0 .515h84.487V85H0z"/><path id="k" d="M0 .515h84.486V85H0z"/><path id="m" d="M.894.493h84.508V85H.894z"/><path id="o" d="M0 .618h11.456v11.06H0z"/></defs><g fill="none" fill-rule="evenodd"><mask id="b" fill="#fff"><use xlink:href="#a"/></mask><path fill="#4F7BAC" d="M22.533 512.516c-5.724 0-10.38-4.643-10.38-10.347 0-5.705 4.656-10.347 10.38-10.347 5.724 0 10.38 4.642 10.38 10.347 0 5.704-4.656 10.347-10.38 10.347zM1170 0l-57.62 48.26 25.078 1.78c-72.632 130.876-173.652 235.97-300.443 312.48-104.362 62.976-226.35 106.876-362.577 130.486-226.715 39.293-418.54 8.575-429.505 6.746-1.214-11.252-10.792-20.043-22.4-20.043C10.11 479.709 0 489.784 0 502.169c0 12.386 10.11 22.46 22.533 22.46 9.006 0 16.771-5.303 20.377-12.933C50.32 512.928 125.992 525 236.12 525c69.208 0 152.029-4.771 240.028-19.996 137.793-23.836 261.26-68.25 366.973-132.008 128.841-77.703 231.456-184.478 305.174-317.463l16.172 19.283L1170 0z" mask="url(#b)"/><g transform="translate(145 469.73)"><mask id="d" fill="#fff"><use xlink:href="#c"/></mask><path fill="#00A850" d="M78.815 63.902C67.133 84.097 41.292 90.998 21.097 79.316.902 67.633-5.998 41.793 5.684 21.598 17.366 1.404 43.207-5.497 63.401 6.184c20.195 11.683 27.096 37.524 15.414 57.718" mask="url(#d)"/></g><path fill="#FFF" d="M221.943 512.48c0 19.16-15.533 34.693-34.693 34.693-19.161 0-34.693-15.532-34.693-34.693 0-19.16 15.532-34.693 34.693-34.693 19.16 0 34.693 15.533 34.693 34.693"/><g transform="translate(165 459.73)"><mask id="f" fill="#fff"><use xlink:href="#e"/></mask><path fill="#00A850" d="M4.9.498l7.592 7.45c-1.634.246-3.27.598-4.898 1.05A41.457 41.457 0 00.833 11.52L3.589.863a.78.78 0 011.31-.364" mask="url(#f)"/></g><text fill="#000" font-family="OpenSans-Bold, Open Sans" font-size="18" font-weight="bold" transform="translate(145 459)"><tspan x="21.451" y="61">1994</tspan></text><g transform="translate(370 459.503)"><mask id="h" fill="#fff"><use xlink:href="#g"/></mask><path fill="#006DB8" d="M83.524 33.748c4.971 22.795-9.478 45.303-32.272 50.273C28.458 88.99 5.95 74.544.98 51.75-3.99 28.955 10.457 6.447 33.251 1.477c22.794-4.971 45.302 9.477 50.273 32.27" mask="url(#h)"/></g><path fill="#FFF" d="M446.945 502.251c0 19.16-15.533 34.693-34.693 34.693-19.16 0-34.694-15.533-34.694-34.693 0-19.16 15.533-34.693 34.694-34.693 19.16 0 34.693 15.532 34.693 34.693"/><path fill="#006DB8" d="M448.016 542.73l-10.03-3.542a41.299 41.299 0 003.995-3.021 41.488 41.488 0 005.063-5.144l2.005 10.824a.78.78 0 01-1.034.884"/><text fill="#000" font-family="OpenSans-Bold, Open Sans" font-size="18" font-weight="bold" transform="translate(370 459)"><tspan x="22.451" y="50">1998</tspan></text><g transform="translate(600 406.485)"><mask id="j" fill="#fff"><use xlink:href="#i"/></mask><path fill="#B5D434" d="M6.253 20.654C18.46.776 44.47-5.441 64.349 6.767c19.878 12.207 26.093 38.218 13.886 58.095C66.027 84.74 40.017 90.957 20.14 78.748.26 66.54-5.956 40.53 6.253 20.653" mask="url(#j)"/></g><path fill="#FFF" d="M612.681 431.087c10.027-16.327 31.392-21.434 47.72-11.406 16.327 10.027 21.432 31.392 11.405 47.72-10.026 16.326-31.393 21.432-47.719 11.404-16.327-10.027-21.434-31.391-11.406-47.718"/><path fill="#B5D434" d="M607.053 408.084l10.007 3.602a41.035 41.035 0 00-4.014 2.998 41.469 41.469 0 00-5.093 5.114l-1.939-10.836a.78.78 0 011.038-.878"/><text fill="#000" font-family="OpenSans-Bold, Open Sans" font-size="18" font-weight="bold" transform="translate(600 406)"><tspan x="22.451" y="50">2002</tspan></text><g transform="translate(800 325.485)"><mask id="l" fill="#fff"><use xlink:href="#k"/></mask><path fill="#973F80" d="M84.486 42.757C84.486 66.087 65.573 85 42.243 85 18.913 85 0 66.087 0 42.757 0 19.427 18.913.515 42.243.515c23.33 0 42.243 18.912 42.243 42.242" mask="url(#l)"/></g><path fill="#FFF" d="M876.936 368.242c0 19.161-15.532 34.693-34.693 34.693-19.16 0-34.694-15.532-34.694-34.693 0-19.16 15.534-34.693 34.694-34.693 19.161 0 34.693 15.533 34.693 34.693"/><path fill="#973F80" d="M877.135 409.978l-9.934-3.8c1.4-.879 2.76-1.852 4.073-2.918a41.619 41.619 0 005.194-5.01l1.724 10.873a.78.78 0 01-1.057.855"/><text fill="#000" font-family="OpenSans-Bold, Open Sans" font-size="18" font-weight="bold" transform="translate(800 325)"><tspan x="22.451" y="49">2008</tspan></text><g transform="translate(973 187.507)"><mask id="n" fill="#fff"><use xlink:href="#m"/></mask><path fill="#26BBF2" d="M2.64 54.728C-3.977 32.356 8.795 8.856 31.166 2.238c22.372-6.616 45.873 6.156 52.49 28.528 6.617 22.37-6.155 45.872-28.527 52.488C32.757 89.872 9.257 77.1 2.639 54.728" mask="url(#n)"/></g><path fill="#FFF" d="M1050.841 230.254c0 19.16-15.532 34.693-34.693 34.693-19.161 0-34.694-15.532-34.694-34.693 0-19.16 15.533-34.693 34.694-34.693s34.693 15.533 34.693 34.693"/><g transform="translate(970 199.507)"><mask id="p" fill="#fff"><use xlink:href="#o"/></mask><path fill="#26BBF2" d="M.852.62l10.604.828a41.73 41.73 0 00-6.637 10.23L.08 1.741A.78.78 0 01.85.621" mask="url(#p)"/></g><text fill="#000" font-family="OpenSans-Bold, Open Sans" font-size="18" font-weight="bold" transform="translate(970 187)"><tspan x="25.135" y="39">Hiện</tspan> <tspan x="28.127" y="63">Nay</tspan></text><text fill="#000" font-family="OpenSans-Regular, Open Sans" font-size="14"><tspan x="524.485" y="359">Enhance Your Brand </tspan> <tspan x="526.55" y="378">Potential With Giant </tspan> <tspan x="535.942" y="397">Advertising Blimps</tspan></text><text fill="#000" font-family="OpenSans-Regular, Open Sans" font-size="14"><tspan x="851.252" y="149">Protective Preventative </tspan> <tspan x="916.152" y="168">Maintenance</tspan></text><text fill="#000" font-family="OpenSans-Regular, Open Sans" font-size="14"><tspan x="392" y="609">Consumer Psychology In </tspan> <tspan x="392" y="628">The Industrial And </tspan> <tspan x="392" y="647">Manufacturing Equipment </tspan> <tspan x="392" y="666">Marketplace</tspan></text><text fill="#000" font-family="OpenSans-Regular, Open Sans" font-size="14"><tspan x="847" y="479">Party Jokes Startling But </tspan> <tspan x="847" y="498">Unnecessary</tspan></text><text fill="#000" font-family="OpenSans-Bold, Open Sans" font-size="14" font-weight="bold"><tspan x="190.972" y="334">Thành Lập</tspan></text><text fill="#000" font-family="OpenSans-Bold, Open Sans" font-size="14" font-weight="bold"><tspan x="534.042" y="330">Nhận giải thưởng</tspan></text><text fill="#000" font-family="OpenSans-Bold, Open Sans" font-size="14" font-weight="bold"><tspan x="911.812" y="122">11 chi nhánh</tspan></text><text fill="#000" font-family="OpenSans-Bold, Open Sans" font-size="14" font-weight="bold"><tspan x="392" y="580">Nhận giải thưởng</tspan></text><text fill="#000" font-family="OpenSans-Bold, Open Sans" font-size="14" font-weight="bold"><tspan x="847" y="450">Mở rộng cơ sở</tspan></text><text fill="#000" font-family="OpenSans-Regular, Open Sans" font-size="14"><tspan x="19.068" y="363">Marie Stopes đầu tiên được thành lập </tspan> <tspan x="15.302" y="382">vào năm 1994 tại thành phố Vinh, tỉnh </tspan> <tspan x="2.915" y="401">Nghệ An với sự hỗ trợ của tổ chức Marie </tspan> <tspan x="91.222" y="420">Stopes quốc tế (Anh Quốc)</tspan></text></g></svg>