<svg width="24" height="25" viewBox="0 0 24 25" fill="none" xmlns="http://www.w3.org/2000/svg">
<mask id="mask0_2051_2317" style="mask-type:alpha" maskUnits="userSpaceOnUse" x="0" y="0" width="24" height="25">
<rect y="0.875" width="24" height="24" fill="#D9D9D9"/>
</mask>
<g mask="url(#mask0_2051_2317)">
<path d="M19.95 21.875C17.8667 21.875 15.8083 21.4208 13.775 20.5125C11.7417 19.6042 9.89167 18.3167 8.225 16.65C6.55833 14.9833 5.27083 13.1333 4.3625 11.1C3.45417 9.06667 3 7.00833 3 4.925C3 4.625 3.1 4.375 3.3 4.175C3.5 3.975 3.75 3.875 4.05 3.875H8.1C8.33333 3.875 8.54167 3.95417 8.725 4.1125C8.90833 4.27083 9.01667 4.45833 9.05 4.675L9.7 8.175C9.73333 8.44167 9.725 8.66667 9.675 8.85C9.625 9.03333 9.53333 9.19167 9.4 9.325L6.975 11.775C7.30833 12.3917 7.70417 12.9875 8.1625 13.5625C8.62083 14.1375 9.125 14.6917 9.675 15.225C10.1917 15.7417 10.7333 16.2208 11.3 16.6625C11.8667 17.1042 12.4667 17.5083 13.1 17.875L15.45 15.525C15.6 15.375 15.7958 15.2625 16.0375 15.1875C16.2792 15.1125 16.5167 15.0917 16.75 15.125L20.2 15.825C20.4333 15.8917 20.625 16.0125 20.775 16.1875C20.925 16.3625 21 16.5583 21 16.775V20.825C21 21.125 20.9 21.375 20.7 21.575C20.5 21.775 20.25 21.875 19.95 21.875ZM6.025 9.875L7.675 8.225L7.25 5.875H5.025C5.10833 6.55833 5.225 7.23333 5.375 7.9C5.525 8.56667 5.74167 9.225 6.025 9.875ZM14.975 18.825C15.625 19.1083 16.2875 19.3333 16.9625 19.5C17.6375 19.6667 18.3167 19.775 19 19.825V17.625L16.65 17.15L14.975 18.825Z" fill="#989898"/>
</g>
</svg>
