<svg width="24" height="25" viewBox="0 0 24 25" fill="none" xmlns="http://www.w3.org/2000/svg">
<mask id="mask0_2051_1646" style="mask-type:alpha" maskUnits="userSpaceOnUse" x="0" y="0" width="24" height="25">
<rect y="0.875" width="24" height="24" fill="#D9D9D9"/>
</mask>
<g mask="url(#mask0_2051_1646)">
<path d="M4 20.875C3.45 20.875 2.97917 20.6792 2.5875 20.2875C2.19583 19.8958 2 19.425 2 18.875V6.875C2 6.325 2.19583 5.85417 2.5875 5.4625C2.97917 5.07083 3.45 4.875 4 4.875H20C20.55 4.875 21.0208 5.07083 21.4125 5.4625C21.8042 5.85417 22 6.325 22 6.875V18.875C22 19.425 21.8042 19.8958 21.4125 20.2875C21.0208 20.6792 20.55 20.875 20 20.875H4ZM12 13.875L4 8.875V18.875H20V8.875L12 13.875ZM12 11.875L20 6.875H4L12 11.875ZM4 8.875V6.875V18.875V8.875Z" fill="#989898"/>
</g>
</svg>
