<svg width="28" height="28" viewBox="0 0 28 28" fill="none" xmlns="http://www.w3.org/2000/svg">
<path d="M15.4682 14.4196C15.2941 14.4242 15.1161 14.4335 14.9552 14.4648C14.7917 14.4967 14.605 14.5585 14.4443 14.6979C14.1107 14.9871 14.0832 15.4312 14.0996 15.818L14.0996 15.8185C14.1875 17.8408 13.7843 19.1803 12.9748 20.0166C12.1654 20.8529 10.8449 21.2942 8.84307 21.2727L8.84307 21.2727H8.8377C8.75046 21.2727 8.64678 21.2772 8.56017 21.281C8.51846 21.2829 8.48071 21.2845 8.45067 21.2854C8.33757 21.2888 8.25388 21.2862 8.18323 21.2741C7.98566 21.2396 7.79049 21.2536 7.64232 21.2688C7.57737 21.2754 7.52304 21.2819 7.4743 21.2877C7.39183 21.2975 7.32532 21.3055 7.2503 21.309C7.14202 21.3142 7.09812 21.3029 7.08418 21.2972C7.08311 21.2968 7.08239 21.2965 7.08197 21.2963C7.08135 21.2956 7.07962 21.2938 7.07694 21.2902C7.07368 21.2857 7.06856 21.2779 7.0623 21.2654L7.06183 21.2644C6.97001 21.0819 6.97479 20.9597 7.0004 20.891C7.02261 20.8315 7.09856 20.7097 7.38915 20.6082L7.39106 20.6075C7.57058 20.544 7.66813 20.4118 7.71485 20.3296C7.7631 20.2447 7.78919 20.1578 7.80483 20.0923C7.82658 20.0011 7.83933 19.9012 7.84728 19.8048C7.87952 19.8495 7.91585 19.8923 7.95629 19.9325L8.85957 20.8305C9.25665 21.2252 9.89848 21.2252 10.2956 20.8305C10.4753 20.6518 10.574 20.423 10.5917 20.1893L10.6424 20.2397C11.0394 20.6344 11.6813 20.6344 12.0784 20.2397C12.448 19.8722 12.4749 19.2925 12.1591 18.8941C12.2746 18.9428 12.4062 18.9663 12.5476 18.9449C12.7035 18.9213 12.8274 18.8497 12.9202 18.7674C12.9869 18.7281 13.0547 18.6783 13.1183 18.615C13.5166 18.2191 13.5166 17.578 13.1239 17.1818L13.1213 17.1791L13.0772 17.1353C13.3088 17.1166 13.5351 17.019 13.7126 16.8426C14.1113 16.4462 14.1113 15.8031 13.7126 15.4068L13.3601 15.7613L13.7126 15.4068L13.1064 14.8042C12.7094 14.4094 12.0675 14.4094 11.6705 14.8042C11.4885 14.9851 11.3896 15.2174 11.3737 15.4542C10.9753 15.1505 10.404 15.18 10.0392 15.5426C9.77014 15.8101 9.68266 16.19 9.77674 16.5305C9.37886 16.2351 8.81416 16.2672 8.4525 16.6267C8.35495 16.7237 8.28127 16.8355 8.23146 16.9548C8.45343 16.3618 8.77061 15.8761 9.16918 15.4957C9.94004 14.76 11.0838 14.3526 12.6326 14.3972L12.6331 14.3972C12.8858 14.4042 13.1227 14.3962 13.3311 14.352C13.5456 14.3065 13.7608 14.2163 13.9316 14.0362C14.1012 13.8574 14.1794 13.6401 14.2165 13.4315C14.2303 13.3533 14.2393 13.2713 14.2445 13.1865L15.0994 14.0363C15.4965 14.4311 16.1383 14.4311 16.5354 14.0363C16.7981 13.7752 16.8877 13.4069 16.8042 13.0726L16.8822 13.1502C17.2793 13.5449 17.9211 13.5449 18.3182 13.1502C18.5999 12.87 18.6826 12.4667 18.5661 12.1143C18.8499 12.1348 19.1407 12.037 19.3581 11.8209C19.7568 11.4245 19.7568 10.7814 19.3581 10.385L19.3143 10.3414C19.5468 10.3233 19.7742 10.2256 19.9524 10.0485C20.0061 9.99514 20.0525 9.93732 20.0917 9.87624C20.0912 9.92176 20.09 9.96581 20.0873 10.0121M15.4682 14.4196C15.4683 14.4196 15.4685 14.4196 15.4686 14.4196L15.4816 14.9195L15.468 14.4197C15.468 14.4197 15.4681 14.4196 15.4682 14.4196ZM15.4682 14.4196C17.0133 14.3774 18.1036 13.9721 18.8308 13.2735C19.5576 12.5755 19.994 11.5152 20.0873 10.0121M20.0873 10.0121C20.0873 10.0123 20.0873 10.0126 20.0872 10.0128L20.5864 10.0425L20.0873 10.0115C20.0873 10.0117 20.0873 10.0119 20.0873 10.0121ZM14.2851 11.6237C14.2794 11.6742 14.2743 11.7252 14.2697 11.7765C14.2417 12.0894 14.2333 12.4171 14.246 12.7588L16.6754 12.9446C16.5956 12.8775 16.5204 12.8018 16.4493 12.7198L16.4329 12.7035L15.5296 11.8055L15.1578 11.4358M14.2851 11.6237C14.5368 11.4255 14.8606 11.3629 15.1578 11.4358M14.2851 11.6237C14.3237 11.2788 14.3865 10.9525 14.4715 10.6455C14.5213 10.7646 14.5949 10.8762 14.6923 10.9731L15.1578 11.4358M14.2851 11.6237C14.2543 11.6479 14.2246 11.6742 14.1961 11.7025C13.906 11.9909 13.827 12.41 13.9591 12.7696L13.7463 12.7778C13.5829 8.39416 16.7088 5.90396 20.9043 7.06192L17.0118 12.574M15.1578 11.4358C15.3315 11.4784 15.4961 11.5673 15.6321 11.7025L16.5354 12.6005C16.5385 12.6036 16.5416 12.6067 16.5446 12.6098L16.8157 12.3791M16.8157 12.3791L16.565 12.6312L17.0118 12.574M16.8157 12.3791C16.8811 12.4559 16.9465 12.5208 17.0118 12.574M16.8157 12.3791L15.0448 10.6185C14.8428 10.4176 14.8428 10.0927 15.0448 9.89182C15.2469 9.69095 15.5737 9.69095 15.7758 9.89182L17.9656 12.0689C18.1677 12.2698 18.1677 12.5947 17.9656 12.7956C17.7636 12.9964 17.4367 12.9964 17.2347 12.7956L17.0118 12.574M20.7713 7.5439L20.7728 7.54432C20.9129 7.58251 20.9624 7.63489 20.9805 7.65971C21.0007 7.68739 21.0168 7.72974 21.0157 7.79638C21.0145 7.86598 20.9939 7.94488 20.959 8.0138C20.9298 8.0712 20.9037 8.09728 20.8971 8.10381C20.8951 8.10584 20.8949 8.10598 20.8972 8.10458L20.8955 8.10565C20.5055 8.34857 20.2891 8.64168 20.183 8.96431C20.1332 8.83614 20.0564 8.716 19.9524 8.61264L19.5999 8.96723L19.9524 8.61264L19.3462 8.01003C18.9492 7.61528 18.3073 7.61528 17.9103 8.01003C17.7277 8.19149 17.6288 8.42467 17.6134 8.66221C17.2149 8.35624 16.6417 8.38501 16.276 8.74852C16.0901 8.93337 15.9909 9.17189 15.9784 9.41402C15.7024 9.22819 15.3554 9.1922 15.0518 9.30604C15.3157 8.884 15.6364 8.52477 16.0026 8.23259C17.1375 7.32692 18.7936 6.99808 20.7713 7.5439ZM7.95629 18.4966C7.93275 18.52 7.91061 18.5443 7.88985 18.5693C7.93614 18.001 8.04106 17.493 8.19895 17.0443C8.0909 17.3925 8.17541 17.7871 8.4525 18.0626L8.59439 18.2037C8.3619 18.2218 8.13445 18.3195 7.95629 18.4966Z" fill="white" stroke="#E50C75"/>
</svg>
