<svg width="28" height="28" viewBox="0 0 28 28" fill="none" xmlns="http://www.w3.org/2000/svg">
<path d="M9.78481 14.992C10.158 14.8271 10.5821 14.7361 11.0401 14.7361C11.942 14.7361 12.94 15.0631 13.9521 15.6829C14.5656 15.3047 15.6371 14.7589 16.7058 14.7589C17.0705 14.7589 17.4126 14.8243 17.7207 14.9494C20.2624 12.8001 21.6477 9.38846 18.9025 7.17945C16.0753 4.90505 13.8136 7.46375 13.8136 7.46375C11.8345 4.90505 7.02831 6.32655 7.31103 10.5911C7.42977 12.3253 8.52672 13.8235 9.78481 14.992ZM13.8418 10.4233C13.8418 10.4233 14.608 9.5562 15.5692 10.3267C16.5277 11.0971 16.0018 12.3025 15.0886 13.0275C14.6108 13.4085 13.8418 13.8946 13.8418 13.8946C13.8418 13.8946 11.7327 12.9308 11.6366 11.4838C11.5405 10.0395 13.1718 9.5562 13.8418 10.4233Z" fill="#E50C75"/>
<path d="M15.6683 19.3019C17.0988 19.879 18.7103 18.7845 18.5237 17.2436C18.4559 16.6892 18.1647 16.1689 17.6332 15.8505C16.2196 14.9976 13.9578 16.7034 13.9578 16.7034C11.1306 14.7133 8.86888 15.5662 9.1516 17.8406C9.99975 20.3993 12.8269 18.9778 12.8269 18.9778C12.8269 20.6836 11.1306 20.6836 11.1306 20.6836V22.1051C12.8269 22.1051 13.9578 20.3993 13.9578 20.3993C14.806 22.1051 16.5023 22.1051 16.5023 22.1051V20.6836C14.806 20.3993 14.806 18.6935 14.806 18.6935C14.806 18.6935 15.0435 19.0489 15.6683 19.3019ZM16.5023 16.7034C16.9716 16.7034 17.3504 17.0844 17.3504 17.5563C17.3504 18.0283 16.9716 18.4092 16.5023 18.4092C16.033 18.4092 15.0887 17.5563 15.0887 17.5563C15.0887 17.5563 16.0358 16.7034 16.5023 16.7034ZM11.1306 18.4092C10.6613 18.4092 10.2825 18.0283 10.2825 17.5563C10.2825 17.0844 10.6613 16.7034 11.1306 16.7034C11.5999 16.7034 12.5442 17.5563 12.5442 17.5563C12.5442 17.5563 11.5999 18.4092 11.1306 18.4092Z" fill="#E50C75"/>
</svg>
