<svg width="28" height="28" viewBox="0 0 28 28" fill="none" xmlns="http://www.w3.org/2000/svg">
<path d="M20.5699 16.4031C20.3665 15.0503 19.9922 13.718 19.8537 12.3623C19.7063 10.8827 19.2819 9.8452 17.4339 10.1429C17.1274 10.3492 16.759 10.47 16.364 10.47C16.3257 10.47 16.2874 10.4671 16.252 10.4641C16.3286 10.8915 16.2903 11.3572 16.3935 11.8406C16.6145 12.8751 16.2225 12.9016 15.6566 13.1404C15.2971 13.2907 14.9169 13.3938 14.5484 13.5265C14.1505 13.6709 13.5876 13.777 13.8263 14.3547C14.0179 14.8263 14.4453 15.0326 15.0347 14.7968C15.8747 14.4608 16.7501 14.2161 17.6255 13.9273C17.7552 14.7054 16.8769 14.4755 16.7707 14.9589C17.596 15.5749 18.0705 16.4444 18.6335 17.2372C19.0992 17.8915 19.7594 17.8532 20.3459 17.6705C21.015 17.4553 20.6318 16.8216 20.5699 16.4031Z" fill="#E50C75"/>
<path d="M16.361 10.1723C17.2563 10.1723 17.9821 9.44651 17.9821 8.55123C17.9821 7.65595 17.2563 6.93018 16.361 6.93018C15.4658 6.93018 14.74 7.65595 14.74 8.55123C14.74 9.44651 15.4658 10.1723 16.361 10.1723Z" fill="#E50C75"/>
<path d="M6.92952 12.9726C7.82481 12.9726 8.55058 12.2468 8.55058 11.3515C8.55058 10.4562 7.82481 9.73047 6.92952 9.73047C6.03424 9.73047 5.30847 10.4562 5.30847 11.3515C5.30847 12.2468 6.03424 12.9726 6.92952 12.9726Z" fill="#E50C75"/>
<path d="M22.2794 20.332C19.2878 20.3585 16.2963 20.3408 13.3017 20.3408C12.3114 20.3408 11.3211 20.3408 10.3337 20.3408C10.8171 20.0402 11.2975 20.0402 11.775 20.0402C14.6693 20.0402 17.5636 20.0372 20.4579 20.0402C21.0887 20.0402 21.7076 19.9458 21.7489 19.1766C21.7842 18.5016 21.2596 18.1686 20.6701 18.2776C19.0314 18.5783 18.1295 17.7 17.4162 16.4267C16.8769 15.4658 16.1489 15.345 15.1939 15.8608C13.9384 16.5387 12.5767 16.9572 11.2003 17.3109C10.6049 17.4642 9.97415 17.6233 9.54972 16.6713C10.9704 17.1311 12.0727 16.4856 13.231 16.188C13.6495 16.0789 13.9443 15.7959 13.8234 15.3244C13.6819 14.7732 13.2605 14.7202 12.7741 14.8469C12.4912 14.9206 12.2053 15.009 11.9165 15.0326C11.6807 15.0532 11.436 14.9884 11.1944 14.9648C12.9716 14.7762 13.1396 13.6591 12.9923 12.2532C12.9156 11.5164 12.7447 10.6616 13.7792 10.3197C14.2744 10.1547 14.1535 9.68606 14.1594 9.31174C14.1741 8.38037 14.1299 7.44606 14.1741 6.51764C14.2184 5.63932 13.8912 5.28269 12.9864 5.30627C11.1236 5.35343 9.25793 5.31806 7.3952 5.32395C7.00909 5.32395 6.47562 5.22669 6.34299 5.65111C6.02172 6.69448 6.20446 7.7909 6.22509 8.86374C6.23983 9.55637 6.9413 9.22332 7.32151 9.48269C7.86972 9.59764 8.32951 9.94542 8.59478 10.4199C9.37878 10.4347 9.98299 10.4818 10.5695 10.4023C12.0403 10.2018 12.4352 10.8503 12.3055 12.2178C12.1847 13.497 11.7603 13.9067 10.4723 13.609C9.71478 13.4322 9.13709 12.8515 8.46214 12.5008C8.22046 12.825 7.87857 13.0726 7.48067 13.1934L6.0512 14.8587C5.70046 14.4608 5.41751 13.8536 4.77204 14.3753C3.95857 15.0355 4.79562 15.6103 5.12867 16.1261C5.9952 17.4701 6.92657 18.7757 8.0053 20.3496C6.99436 20.3496 6.27815 20.385 5.56488 20.3408C4.76615 20.2936 4.40951 20.553 4.4213 21.4166C4.43309 22.2094 4.76025 22.4157 5.4912 22.4128C11.0824 22.3951 16.6765 22.3922 22.2676 22.4128C23.0369 22.4157 23.2963 22.1387 23.2933 21.3812C23.2963 20.6296 23.0546 20.3231 22.2794 20.332ZM16.2137 17.9829L16.8032 18.5724H14.74L16.2137 17.9829ZM12.9716 5.89869C13.2958 5.89869 13.5611 6.16395 13.5611 6.48816C13.5611 6.81237 13.2958 7.07764 12.9716 7.07764C12.6474 7.07764 12.3821 6.81237 12.3821 6.48816C12.3821 6.161 12.6474 5.89869 12.9716 5.89869ZM12.2908 7.94122C11.38 8.06501 10.935 8.93153 10.1716 9.13195C8.92193 9.46206 7.86383 8.28016 8.19099 7.03343C8.30004 6.62079 8.63015 6.67679 8.86593 6.88311C9.14593 7.13069 9.36109 7.45195 9.61457 7.75258C9.90341 7.4048 9.88278 6.48816 10.1569 6.69153C10.8672 7.225 11.607 6.43806 12.1935 6.94206C12.5384 7.2309 12.5737 7.89995 12.2908 7.94122Z" fill="#E50C75"/>
</svg>
