<svg width="28" height="28" viewBox="0 0 28 28" fill="none" xmlns="http://www.w3.org/2000/svg">
<mask id="mask0_2019_2730" style="mask-type:alpha" maskUnits="userSpaceOnUse" x="0" y="0" width="28" height="28">
<rect width="28" height="28" fill="#D9D9D9"/>
</mask>
<g mask="url(#mask0_2019_2730)">
<path d="M2.3335 10.5003V7.00033C2.3335 6.35866 2.56197 5.80935 3.01891 5.35241C3.47586 4.89546 4.02516 4.66699 4.66683 4.66699H23.3335C23.9752 4.66699 24.5245 4.89546 24.9814 5.35241C25.4384 5.80935 25.6668 6.35866 25.6668 7.00033V14.0003H23.3335V7.00033H4.66683V10.5003H2.3335ZM4.66683 23.3337C4.02516 23.3337 3.47586 23.1052 3.01891 22.6482C2.56197 22.1913 2.3335 21.642 2.3335 21.0003V17.5003H4.66683V21.0003H12.8335V23.3337H4.66683ZM21.0002 26.2503L19.221 24.7337C17.5099 23.2753 16.4064 22.2205 15.9106 21.5691C15.4147 20.9177 15.1668 20.242 15.1668 19.542C15.1668 18.667 15.4779 17.9135 16.1002 17.2816C16.7224 16.6496 17.4807 16.3337 18.3752 16.3337C18.8807 16.3337 19.362 16.4503 19.8189 16.6837C20.2759 16.917 20.6696 17.2573 21.0002 17.7045C21.3113 17.2573 21.6953 16.917 22.1522 16.6837C22.6092 16.4503 23.1002 16.3337 23.6252 16.3337C24.5002 16.3337 25.2536 16.6496 25.8856 17.2816C26.5175 17.9135 26.8335 18.667 26.8335 19.542C26.8335 20.242 26.5807 20.9177 26.0752 21.5691C25.5696 22.2205 24.4613 23.2753 22.7502 24.7337L21.0002 26.2503ZM21.0002 23.1587L21.8168 22.4878C22.9057 21.5545 23.6252 20.8982 23.9752 20.5191C24.3252 20.1399 24.5002 19.8142 24.5002 19.542C24.5002 19.3087 24.4127 19.1045 24.2377 18.9295C24.0627 18.7545 23.8585 18.667 23.6252 18.667C23.4696 18.667 23.3286 18.701 23.2022 18.7691C23.0759 18.8371 22.9252 18.9489 22.7502 19.1045L21.0002 20.767L19.221 19.1045C19.046 18.9489 18.8953 18.8371 18.7689 18.7691C18.6425 18.701 18.5113 18.667 18.3752 18.667C18.1224 18.667 17.9134 18.7545 17.7481 18.9295C17.5828 19.1045 17.5002 19.3087 17.5002 19.542C17.5002 19.8142 17.6703 20.1399 18.0106 20.5191C18.3509 20.8982 19.0654 21.5545 20.1543 22.4878L21.0002 23.1587ZM8.16683 19.8337C7.9335 19.8337 7.72447 19.7802 7.53975 19.6732C7.35502 19.5663 7.21405 19.4059 7.11683 19.192L5.10433 15.167H2.3335V12.8337H5.8335C6.04738 12.8337 6.24669 12.892 6.43141 13.0087C6.61614 13.1253 6.75711 13.2809 6.85433 13.4753L8.16683 16.0712L11.7835 8.80866C11.8807 8.61421 12.0266 8.46838 12.221 8.37116C12.4154 8.27394 12.6196 8.22533 12.8335 8.22533C13.0474 8.22533 13.2516 8.27394 13.446 8.37116C13.6404 8.46838 13.7863 8.61421 13.8835 8.80866L15.8668 12.8337H19.8335V15.167H15.1668C14.9335 15.167 14.7245 15.1135 14.5397 15.0066C14.355 14.8996 14.2141 14.7392 14.1168 14.5253L12.8335 11.9587L9.18766 19.192C9.09044 19.4059 8.94947 19.5663 8.76475 19.6732C8.58002 19.7802 8.38072 19.8337 8.16683 19.8337Z" fill="#E50C75"/>
</g>
</svg>
