<svg width="28" height="28" viewBox="0 0 28 28" fill="none" xmlns="http://www.w3.org/2000/svg">
<path d="M14.0489 21.4059C11.9622 21.4059 9.8725 21.3617 7.78871 21.4265C6.77187 21.456 6.65987 21.0315 6.86324 20.2033C7.52051 17.5183 10.8039 16.4366 12.6931 18.3789C13.6717 19.384 14.3997 19.6492 15.3016 18.3995C16.171 17.197 17.3529 17.0968 18.6704 17.5212C20.0881 17.9781 20.9487 18.9389 21.2936 20.3743C21.4616 21.0728 21.3171 21.4471 20.4536 21.4235C18.3197 21.3675 16.1858 21.4059 14.0489 21.4059ZM17.462 20.2033C17.854 20.1149 18.5348 20.392 18.5201 19.7848C18.5053 19.0509 17.7744 19.4046 17.3706 19.3899C17.0287 19.3781 16.3479 19.0774 16.4068 19.8084C16.4599 20.448 17.0994 20.0854 17.462 20.2033Z" fill="#E50C75"/>
<path d="M14.2051 6.81365C14.5942 6.81365 14.9891 6.85786 15.3693 6.80481C16.4157 6.66039 16.7458 7.12018 16.6544 8.11934C16.5955 8.7766 16.6102 9.40144 17.1053 10.0204C18.5731 11.8537 18.2047 13.0414 15.8792 13.4305C14.3643 13.684 12.755 13.8254 11.246 12.8351C10.2203 12.1602 10.182 11.5118 10.798 10.7366C11.5289 9.81997 11.9563 8.87681 11.7883 7.69197C11.6851 6.96397 12.0978 6.7665 12.7462 6.80776C13.2325 6.84018 13.7188 6.81365 14.2051 6.81365Z" fill="#E50C75"/>
<path d="M11.9474 15.8973C11.0396 15.2312 10.5504 14.515 10.3323 13.4775C11.7264 13.7664 12.2245 14.4885 11.9474 15.8973Z" fill="#E50C75"/>
<path d="M15.9824 16.0244C16.0296 14.6097 16.3214 13.6871 17.7892 13.5015C17.5445 14.5861 17.0199 15.3347 15.9824 16.0244Z" fill="#E50C75"/>
<path d="M13.3003 17.3652C13.9045 17.3652 14.4792 17.3652 15.0746 17.3652C14.267 18.6473 14.1963 18.6473 13.3003 17.3652Z" fill="#E50C75"/>
</svg>
