<svg width="28" height="28" viewBox="0 0 28 28" fill="none" xmlns="http://www.w3.org/2000/svg">
<path d="M10.8657 7.35643C10.7891 8.74758 9.5954 9.80569 8.22193 9.69958C6.83961 9.59348 5.83456 8.39685 5.9495 6.9939C6.05856 5.66169 7.1933 4.65664 8.51372 4.71853C9.89898 4.78043 10.9453 5.95643 10.8657 7.35643Z" fill="#E50C75"/>
<path d="M18.747 4.71863C20.1293 4.73926 21.2169 5.88873 21.1786 7.28578C21.1403 8.67989 19.979 9.77042 18.6026 9.70557C17.2821 9.64368 16.2388 8.54431 16.2388 7.2121C16.2358 5.82094 17.3676 4.69505 18.747 4.71863Z" fill="#E50C75"/>
<path fill-rule="evenodd" clip-rule="evenodd" d="M15.7908 13.8168C15.8114 13.2303 15.832 12.6437 16.4598 12.1427C16.6626 12.5091 16.8031 12.8274 16.7977 13.1488C16.4289 13.623 16.2093 14.219 16.2093 14.8662C16.2093 15.5888 16.483 16.2474 16.9323 16.7441C17.0279 17.5807 16.8296 18.4158 16.6249 19.2635C16.5059 19.7601 16.3946 20.2583 16.2834 20.7562C16.1386 21.4051 15.9938 22.0535 15.832 22.6972C15.667 23.3456 15.8615 23.5785 16.5335 23.5637C18.1015 23.5313 19.6724 23.5136 21.2375 23.5696C22.1394 23.602 22.3958 23.3132 22.0421 22.485C21.221 20.5609 21.2176 18.5586 21.2445 16.5529C21.599 16.0838 21.8093 15.4996 21.8093 14.8662C21.8093 14.1893 21.5691 13.5685 21.1692 13.0844C21.1647 13.0397 21.16 12.995 21.155 12.9503C21.1353 12.781 21.2418 12.5973 21.3612 12.3912C21.4206 12.2887 21.4833 12.1806 21.5352 12.066C22.0111 12.6052 22.0767 13.1519 22.1415 13.6911C22.1582 13.8299 22.1748 13.9681 22.1983 14.1056C22.2352 14.3187 22.1958 14.5904 22.1563 14.8636C22.0661 15.4859 21.9749 16.1154 22.7819 16.0745C23.5459 16.0351 23.4238 15.2884 23.3128 14.6098C23.2744 14.3747 23.2372 14.1478 23.2388 13.9612C23.2594 11.4471 22.0569 10.3242 19.5221 10.3006C19.08 10.2947 18.6409 10.2917 18.1988 10.3006C16.0796 10.3477 14.9213 11.3528 14.6826 13.4543C14.6809 13.4692 14.6792 13.4841 14.6776 13.499C14.5973 14.225 14.5225 14.9012 13.6186 14.8926C12.7285 14.8837 12.5899 14.2235 12.5339 13.4572C12.416 11.8067 11.5141 10.725 10.0758 10.3772C7.97729 9.87026 6.01435 10.4538 5.18908 11.8479C4.68083 12.707 4.70281 13.6416 4.72475 14.5744C4.73156 14.8642 4.73837 15.1537 4.72929 15.4408C4.71456 15.877 4.81476 16.2248 5.36887 16.1835C5.79299 16.1496 5.8026 15.8745 5.81229 15.5976C5.81438 15.5377 5.81648 15.4778 5.82277 15.4202C5.85706 15.1203 5.84184 14.8143 5.8266 14.5078C5.79599 13.8924 5.7653 13.2752 6.13519 12.7027C6.95456 12.9485 6.95169 13.5749 6.94873 14.2242L6.94866 14.2383C6.94712 14.6562 6.94523 15.0741 6.94333 15.492C6.93434 17.4761 6.92534 19.4599 6.95455 21.4416C6.97207 22.6151 6.84359 23.1272 7.0419 23.3556C7.24406 23.5885 7.78582 23.5265 9.16803 23.5696C10.064 23.5962 10.3647 23.3309 10.347 22.4202C10.3083 20.3418 10.317 18.2616 10.3257 16.1824C10.3283 15.5667 10.3309 14.951 10.3322 14.3355C10.3322 14.2914 10.3319 14.2471 10.3317 14.2027C10.3275 13.5647 10.3233 12.9123 11.1693 12.7056C11.3833 12.9611 11.3934 13.2506 11.4035 13.5381C11.407 13.6386 11.4105 13.7389 11.4228 13.8374C11.6055 15.2787 12.4101 16.0538 13.7099 15.9831C15.051 15.9094 15.7495 15.1637 15.7908 13.8168Z" fill="#E50C75"/>
</svg>
