<svg width="28" height="28" viewBox="0 0 28 28" fill="none" xmlns="http://www.w3.org/2000/svg">
<path d="M21.8856 9.26795C21.9199 10.9367 20.4651 12.4151 18.7969 12.4189C17.1274 12.4227 15.6695 10.9472 15.6962 9.27956L21.8856 9.26795ZM21.8856 9.26795C21.8856 9.26812 21.8856 9.26828 21.8856 9.26844L21.3857 9.27798L21.8856 9.26795ZM21.8856 9.26795C21.8548 7.66772 20.4831 6.28308 18.8826 6.22963M21.8856 9.26795L18.8826 6.22963M18.8826 6.22963C18.8827 6.22964 18.8828 6.22964 18.8829 6.22965L18.8657 6.72935L18.8824 6.22963C18.8824 6.22963 18.8825 6.22963 18.8826 6.22963ZM18.8826 6.22963C17.2155 6.17238 15.7229 7.60666 15.6962 9.2795L18.8826 6.22963ZM14.0997 9.24761L14.0998 9.24721C14.1371 6.72832 16.2364 4.64384 18.7546 4.62661L18.7551 4.62661C21.3252 4.6065 23.4853 6.74936 23.4853 9.31935C23.4853 11.8893 21.3252 14.0322 18.7551 14.0121C16.1785 13.992 14.0595 11.8239 14.0997 9.24761Z" fill="white" stroke="#E50C75"/>
<path d="M7.22345 21.6994C7.53845 20.8435 7.41118 20.0163 7.34436 19.1922C7.198 17.4103 8.11118 15.8926 8.74436 14.3622C9.31709 12.9685 10.9684 12.6153 12.238 13.2103C13.3389 13.7258 13.8575 15.0303 13.4535 16.2649C12.9985 17.6585 11.363 18.874 10.0585 18.4349C8.48663 17.9067 8.41981 18.7626 8.318 19.8285C8.24481 20.5922 8.18754 21.3781 7.22345 21.6994Z" fill="#E50C75"/>
<path d="M21.128 18.8363C21.0867 18.9795 21.0771 19.4631 20.8353 19.7591C19.9189 20.8886 19.0885 22.0213 18.9199 23.5486C18.8785 23.905 18.4299 24.4204 17.8539 23.9972C17.2303 23.5391 18.2389 23.6409 18.1276 23.2304C17.9144 22.4604 18.2294 21.5568 17.3735 20.9618C16.5526 20.3922 16.1644 19.5459 16.123 18.5404C16.0594 16.9304 17.2526 15.4827 18.6462 15.4922C20.0399 15.4986 21.2203 16.9527 21.128 18.8363Z" fill="#E50C75"/>
<path d="M3.8316 8.75954C5.82342 8.32363 7.21706 6.77408 9.03706 6.12817C10.3702 5.65408 11.6111 6.23635 12.3366 7.55999C12.9507 8.67363 12.5084 9.58363 11.6748 10.3473C10.6948 11.2445 9.04024 11.2954 7.88524 10.5223C5.78524 9.1159 5.78524 9.1159 3.8316 8.75954Z" fill="#E50C75"/>
</svg>
