<svg width="28" height="28" viewBox="0 0 28 28" fill="none" xmlns="http://www.w3.org/2000/svg">
<path d="M11.1177 8.72927C11.1177 7.32978 11.0744 6.15972 11.133 4.99221C11.1763 4.14589 11.5817 3.5035 12.5631 3.61057C13.0423 3.66155 13.3533 3.3735 13.7408 3.23839C14.8471 2.84837 15.7393 3.17721 16.4174 4.07961C17.1108 5.00241 17.0368 6.27698 16.2466 7.10801C15.464 7.93138 14.3526 8.3214 13.5267 7.5694C12.3821 6.5268 12.117 7.4292 11.6224 8.09198C11.5001 8.25767 11.3675 8.41572 11.1177 8.72927Z" fill="#E50C75"/>
<path d="M18.5629 15.4626C18.5502 16.7193 18.1219 17.711 17.1991 18.4247C16.7352 18.7842 16.5287 19.1181 16.7225 19.6993C16.9493 20.3774 16.6281 20.6399 15.9577 20.5635C15.9169 20.5584 15.8736 20.5609 15.8302 20.5635C13.1664 20.6425 13.1664 20.6425 13.1664 23.2962C13.1664 23.7627 13.1613 24.2291 13.1664 24.6931C13.1715 25.1315 13.1995 25.5114 12.5469 25.5369C11.7949 25.5675 11.8714 25.1086 11.8714 24.637C11.8765 23.704 11.8153 22.7685 11.8893 21.8431C11.9657 20.877 11.6904 20.3825 10.6478 20.5635C9.516 20.7598 9.33501 20.2678 9.47011 19.2201C9.76836 16.9131 9.92641 14.5857 10.138 12.2685C10.1584 12.0569 10.1507 11.8454 10.1737 11.6338C10.3521 10.0482 11.3973 8.86795 12.7381 8.73285C13.6099 8.64617 15.8201 10.2598 15.9399 11.2565C16.0214 11.9346 16.3758 12.1589 16.8474 12.4572C17.9715 13.1684 18.489 14.2416 18.5629 15.4626ZM15.2083 16.1381C15.5345 16.0973 16.0469 16.3778 16.103 15.6665C16.1514 15.0726 15.9195 14.8992 15.3255 14.8304C13.8776 14.6622 13.1766 13.8796 13.0491 12.4342C13.0083 11.9728 13.0287 11.5089 13.0313 11.0449C13.0338 10.6218 12.9701 10.3057 12.4195 10.321C11.9326 10.3337 11.7465 10.5325 11.7516 11.0092C11.7593 11.853 11.721 12.6993 11.9479 13.5202C12.3583 14.9859 13.6686 16.0464 15.2083 16.1381Z" fill="#E50C75"/>
</svg>
