<svg width="54" height="55" viewBox="0 0 54 55" fill="none" xmlns="http://www.w3.org/2000/svg">
<rect x="2" y="2.4375" width="50" height="50" rx="25" fill="white"/>
<rect x="2" y="2.4375" width="50" height="50" rx="25" stroke="#E50C75" stroke-width="4"/>
<mask id="mask0_2019_2194" style="mask-type:alpha" maskUnits="userSpaceOnUse" x="15" y="15" width="24" height="25">
<rect x="15" y="15.4375" width="24" height="24" fill="#D9D9D9"/>
</mask>
<g mask="url(#mask0_2019_2194)">
<path d="M34.95 36.4375C32.8667 36.4375 30.8083 35.9833 28.775 35.075C26.7417 34.1667 24.8917 32.8792 23.225 31.2125C21.5583 29.5458 20.2708 27.6958 19.3625 25.6625C18.4542 23.6292 18 21.5708 18 19.4875C18 19.1875 18.1 18.9375 18.3 18.7375C18.5 18.5375 18.75 18.4375 19.05 18.4375H23.1C23.3333 18.4375 23.5417 18.5167 23.725 18.675C23.9083 18.8333 24.0167 19.0208 24.05 19.2375L24.7 22.7375C24.7333 23.0042 24.725 23.2292 24.675 23.4125C24.625 23.5958 24.5333 23.7542 24.4 23.8875L21.975 26.3375C22.3083 26.9542 22.7042 27.55 23.1625 28.125C23.6208 28.7 24.125 29.2542 24.675 29.7875C25.1917 30.3042 25.7333 30.7833 26.3 31.225C26.8667 31.6667 27.4667 32.0708 28.1 32.4375L30.45 30.0875C30.6 29.9375 30.7958 29.825 31.0375 29.75C31.2792 29.675 31.5167 29.6542 31.75 29.6875L35.2 30.3875C35.4333 30.4542 35.625 30.575 35.775 30.75C35.925 30.925 36 31.1208 36 31.3375V35.3875C36 35.6875 35.9 35.9375 35.7 36.1375C35.5 36.3375 35.25 36.4375 34.95 36.4375Z" fill="#E50C75"/>
</g>
</svg>
