<svg width="64" height="64" viewBox="0 0 64 64" fill="none" xmlns="http://www.w3.org/2000/svg">
<rect width="64" height="64" rx="32" fill="white"/>
<mask id="mask0_2001_2427" style="mask-type:alpha" maskUnits="userSpaceOnUse" x="16" y="16" width="32" height="32">
<rect x="16" y="16" width="32" height="32" fill="#D9D9D9"/>
</mask>
<g mask="url(#mask0_2001_2427)">
<path d="M35.3333 39.9998C34.4 39.9998 33.6111 39.6776 32.9667 39.0332C32.3222 38.3887 32 37.5998 32 36.6665C32 35.7332 32.3222 34.9443 32.9667 34.2998C33.6111 33.6554 34.4 33.3332 35.3333 33.3332C36.2667 33.3332 37.0556 33.6554 37.7 34.2998C38.3444 34.9443 38.6667 35.7332 38.6667 36.6665C38.6667 37.5998 38.3444 38.3887 37.7 39.0332C37.0556 39.6776 36.2667 39.9998 35.3333 39.9998ZM22.6667 45.3332C21.9333 45.3332 21.3056 45.0721 20.7833 44.5498C20.2611 44.0276 20 43.3998 20 42.6665V23.9998C20 23.2665 20.2611 22.6387 20.7833 22.1165C21.3056 21.5943 21.9333 21.3332 22.6667 21.3332H24V18.6665H26.6667V21.3332H37.3333V18.6665H40V21.3332H41.3333C42.0667 21.3332 42.6944 21.5943 43.2167 22.1165C43.7389 22.6387 44 23.2665 44 23.9998V42.6665C44 43.3998 43.7389 44.0276 43.2167 44.5498C42.6944 45.0721 42.0667 45.3332 41.3333 45.3332H22.6667ZM22.6667 42.6665H41.3333V29.3332H22.6667V42.6665Z" fill="#00ACEE"/>
</g>
</svg>
