<svg width="100" height="18" viewBox="0 0 100 18" fill="none" xmlns="http://www.w3.org/2000/svg">
<path d="M8.55328 0.321289L11.0268 5.47005L16.6879 6.23146L12.5555 10.175L13.5808 15.7943L8.55328 13.0828L3.52579 15.7943L4.55103 10.175L0.418627 6.23146L6.07975 5.47005L8.55328 0.321289Z" fill="#FFC802"/>
<path d="M29.2767 0.321289L31.7502 5.47005L37.4113 6.23146L33.2789 10.175L34.3042 15.7943L29.2767 13.0828L24.2492 15.7943L25.2744 10.175L21.142 6.23146L26.8031 5.47005L29.2767 0.321289Z" fill="#FFC802"/>
<path d="M50.0001 0.321289L52.4736 5.47005L58.1347 6.23146L54.0023 10.175L55.0275 15.7943L50.0001 13.0828L44.9726 15.7943L45.9978 10.175L41.8654 6.23146L47.5265 5.47005L50.0001 0.321289Z" fill="#FFC802"/>
<path d="M70.7232 0.321289L73.1967 5.47005L78.8578 6.23146L74.7254 10.175L75.7507 15.7943L70.7232 13.0828L65.6957 15.7943L66.721 10.175L62.5885 6.23146L68.2497 5.47005L70.7232 0.321289Z" fill="#FFC802"/>
<path d="M91.4466 0.321289L93.9201 5.47005L99.5812 6.23146L95.4488 10.175L96.4741 15.7943L91.4466 13.0828L86.4191 15.7943L87.4443 10.175L83.3119 6.23146L88.9731 5.47005L91.4466 0.321289Z" fill="#FFC802"/>
</svg>
