<svg width="24" height="25" viewBox="0 0 24 25" fill="none" xmlns="http://www.w3.org/2000/svg">
<mask id="mask0_630_2185" style="mask-type:alpha" maskUnits="userSpaceOnUse" x="0" y="0" width="24" height="25">
<rect y="0.4375" width="24" height="24" fill="#D9D9D9"/>
</mask>
<g mask="url(#mask0_630_2185)">
<path d="M14.5 18.4375C13.8 18.4375 13.2083 18.1958 12.725 17.7125C12.2417 17.2292 12 16.6375 12 15.9375C12 15.2375 12.2417 14.6458 12.725 14.1625C13.2083 13.6792 13.8 13.4375 14.5 13.4375C15.2 13.4375 15.7917 13.6792 16.275 14.1625C16.7583 14.6458 17 15.2375 17 15.9375C17 16.6375 16.7583 17.2292 16.275 17.7125C15.7917 18.1958 15.2 18.4375 14.5 18.4375ZM5 22.4375C4.45 22.4375 3.97917 22.2417 3.5875 21.85C3.19583 21.4583 3 20.9875 3 20.4375V6.4375C3 5.8875 3.19583 5.41667 3.5875 5.025C3.97917 4.63333 4.45 4.4375 5 4.4375H6V2.4375H8V4.4375H16V2.4375H18V4.4375H19C19.55 4.4375 20.0208 4.63333 20.4125 5.025C20.8042 5.41667 21 5.8875 21 6.4375V20.4375C21 20.9875 20.8042 21.4583 20.4125 21.85C20.0208 22.2417 19.55 22.4375 19 22.4375H5ZM5 20.4375H19V10.4375H5V20.4375Z" fill="#00ACEE"/>
</g>
</svg>
