<svg width="100" height="18" viewBox="0 0 100 18" fill="none" xmlns="http://www.w3.org/2000/svg">
<path d="M8.55328 0.321289L11.0268 5.47005L16.6879 6.23146L12.5555 10.175L13.5808 15.7943L8.55328 13.0828L3.52579 15.7943L4.55103 10.175L0.418627 6.23146L6.07975 5.47005L8.55328 0.321289Z" fill="#FFC802"/>
<path d="M29.2765 0.321289L31.7501 5.47005L37.4112 6.23146L33.2788 10.175L34.304 15.7943L29.2765 13.0828L24.2491 15.7943L25.2743 10.175L21.1419 6.23146L26.803 5.47005L29.2765 0.321289Z" fill="#FFC802"/>
<path d="M49.9999 0.321289L52.4735 5.47005L58.1346 6.23146L54.0022 10.175L55.0274 15.7943L49.9999 13.0828L44.9724 15.7943L45.9977 10.175L41.8653 6.23146L47.5264 5.47005L49.9999 0.321289Z" fill="#FFC802"/>
<path d="M70.7233 0.321289L73.1968 5.47005L78.858 6.23146L74.7256 10.175L75.7508 15.7943L70.7233 13.0828L65.6958 15.7943L66.7211 10.175L62.5887 6.23146L68.2498 5.47005L70.7233 0.321289Z" fill="#FFC802"/>
<path d="M91.4467 0.321289L93.9202 5.47005L99.5814 6.23146L95.449 10.175L96.4742 15.7943L91.4467 13.0828L86.4192 15.7943L87.4445 10.175L83.3121 6.23146L88.9732 5.47005L91.4467 0.321289Z" fill="#DCDCDC"/>
</svg>
