<svg width="64" height="64" viewBox="0 0 64 64" fill="none" xmlns="http://www.w3.org/2000/svg">
<rect width="64" height="64" rx="32" fill="white"/>
<path d="M20 44V22.4C20 21.74 20.235 21.175 20.705 20.705C21.175 20.235 21.74 20 22.4 20H41.6C42.26 20 42.825 20.235 43.295 20.705C43.765 21.175 44 21.74 44 22.4V36.8C44 37.46 43.765 38.025 43.295 38.495C42.825 38.965 42.26 39.2 41.6 39.2H24.8L20 44ZM24.8 34.4H34.4V32H24.8V34.4ZM24.8 30.8H39.2V28.4H24.8V30.8ZM24.8 27.2H39.2V24.8H24.8V27.2Z" fill="#00ACEE"/>
</svg>
