<svg width="42" height="42" viewBox="0 0 42 42" fill="none" xmlns="http://www.w3.org/2000/svg">
<rect width="42" height="42" rx="21" fill="white"/>
<path d="M25.6259 29.608C24.9224 29.6165 24.2023 29.4591 23.4864 29.2082C22.4685 28.8508 21.4712 28.4425 20.5152 27.932C18.9014 27.0685 17.5068 25.9157 16.2612 24.5587C15.1646 23.3676 14.1301 22.1255 13.2569 20.7515C12.4789 19.5307 12.0568 18.178 12.003 16.7104C11.9782 16.0766 12.1065 15.4768 12.3341 14.8982C12.6941 13.9752 13.261 13.2137 14.0183 12.6054C14.1549 12.4948 14.2997 12.431 14.4653 12.4183C14.9246 12.38 15.3839 12.3842 15.8474 12.4183C16.0543 12.431 16.1991 12.5246 16.2943 12.7118C16.3729 12.8734 16.4723 13.0223 16.5467 13.1882C17.0847 14.324 17.5482 15.4938 17.9579 16.6849C18.0365 16.9103 18.0365 17.1188 17.9496 17.34C17.8296 17.6462 17.6847 17.9355 17.4861 18.195C17.2254 18.5438 16.9688 18.8969 16.6916 19.2329C16.5592 19.3946 16.5467 19.5264 16.6295 19.7136C17.0144 20.5686 17.4861 21.3683 18.1068 22.0617C19.2945 23.3889 20.6808 24.4396 22.2905 25.1713C22.5098 25.2734 22.7374 25.3499 22.9733 25.418C23.3209 25.5201 23.6023 25.418 23.8258 25.1415C24.1113 24.7969 24.3555 24.4226 24.5955 24.044C24.7403 23.8185 24.881 23.5888 25.0424 23.3761C25.3155 23.0103 25.4479 22.9635 25.8617 23.1082C27.1611 23.5633 28.4026 24.1631 29.5861 24.882C29.8675 25.0522 29.9958 25.2776 29.9999 25.6222C30.004 26.29 29.8716 26.9196 29.6564 27.5407C29.6151 27.664 29.5364 27.7533 29.4578 27.8469C28.8081 28.6169 28.0094 29.1529 27.0659 29.4549C26.6273 29.591 26.1556 29.6123 25.6259 29.608Z" fill="#00ACEE"/>
</svg>
