<svg width="42" height="42" viewBox="0 0 42 42" fill="none" xmlns="http://www.w3.org/2000/svg">
<rect width="42" height="42" rx="21" fill="white"/>
<path d="M25.2391 19.265C26.196 18.5669 27.1565 17.8723 28.1134 17.1741C28.6397 16.7914 29.166 16.4016 29.6959 16.0188C30.0603 15.753 30.4541 15.7672 30.7559 16.0436C31.0466 16.3094 31.0797 16.6922 30.8442 17.0501C29.9094 18.4747 28.9709 19.8994 28.0361 21.3275C28.0141 21.3594 27.9993 21.3984 27.9809 21.4338H27.9846C27.9257 21.4905 27.8816 21.5543 27.8558 21.6323L27.8595 21.6288C27.808 21.6571 27.7896 21.7032 27.7712 21.7528C27.186 22.6352 26.6082 23.5176 26.0157 24.393C25.2391 25.5376 23.686 25.8247 22.5268 25.0273C21.7208 24.4709 20.9369 23.8862 20.1419 23.3121C19.6561 22.9613 19.1703 22.6069 18.6809 22.2596C18.254 21.9548 17.8381 21.9548 17.4149 22.2596C15.6962 23.5106 13.9812 24.7651 12.2661 26.0232C11.9975 26.2181 11.6111 26.2252 11.3314 26.0267C11.0443 25.8212 10.9155 25.4668 11.059 25.1691C11.1915 24.8997 11.3461 24.641 11.5227 24.3965C11.7656 24.0634 11.9791 23.7126 12.2073 23.3688C13.0206 22.1284 13.8303 20.8881 14.6436 19.6477C15.0926 18.9638 15.5306 18.2763 15.9906 17.5994C16.7855 16.4228 18.4159 16.2137 19.5053 16.9934C20.7749 17.9006 22.0336 18.8185 23.2996 19.7292C23.7597 20.0588 24.1571 20.0553 24.6135 19.7292C24.7128 19.6584 24.8085 19.584 24.9042 19.5095C24.9226 19.4954 24.9373 19.4812 24.9557 19.4635L24.9484 19.4705C24.9668 19.4599 24.9815 19.4457 24.9999 19.4351V19.4387C25.0146 19.4245 25.0293 19.4138 25.0477 19.3997L25.0514 19.4032C25.1177 19.3536 25.1802 19.3075 25.2391 19.265Z" fill="#00ACEE"/>
</svg>
