<svg width="42" height="42" viewBox="0 0 42 42" fill="none" xmlns="http://www.w3.org/2000/svg">
<rect width="42" height="42" rx="21" fill="white"/>
<path d="M16.1872 30.2537C15.9753 30.1719 15.7721 30.0711 15.5707 29.9666C14.6854 29.5067 13.9149 28.9021 13.273 28.1364C12.8011 27.5736 12.4288 26.9495 12.1311 26.2797C11.8602 25.6703 11.6747 25.0348 11.5536 24.3796C11.449 23.8143 11.39 23.2442 11.3585 22.6706C11.3379 22.295 11.3281 21.9192 11.3283 21.5431C11.3289 20.7944 11.3264 20.0457 11.3307 19.297C11.3341 18.714 11.3668 18.1322 11.4337 17.5529C11.5329 16.6948 11.7146 15.8567 12.0459 15.0554C12.4609 14.0517 13.0429 13.16 13.8283 12.4052C14.4277 11.8292 15.1122 11.3785 15.8613 11.0227C15.8744 11.0165 15.8868 11.0049 15.9041 11.0093C15.9097 11.0224 15.8984 11.0274 15.8922 11.0335C15.166 11.7334 14.6143 12.5562 14.1834 13.4635C13.8381 14.1906 13.5843 14.9494 13.4013 15.7327C13.2952 16.1869 13.2141 16.6455 13.1578 17.1084C13.0596 17.9143 13.0311 18.723 13.0752 19.5339C13.1371 20.6712 13.3292 21.7851 13.685 22.8687C14.0102 23.8597 14.4596 24.788 15.0807 25.6301C15.2571 25.8694 15.3086 26.1475 15.2826 26.4376C15.2215 27.1203 14.908 27.6841 14.4468 28.1756C14.4141 28.2104 14.377 28.2418 14.3647 28.2909C14.3263 28.2975 14.3165 28.3112 14.3487 28.3417C14.3733 28.365 14.3927 28.3937 14.4163 28.4181C14.5395 28.5457 14.669 28.667 14.7879 28.799C14.8928 28.9156 15.0109 29.0196 15.1159 29.1367C15.2286 29.2623 15.3528 29.377 15.469 29.4998C15.6766 29.7191 15.8923 29.9308 16.1025 30.1477C16.1336 30.1798 16.1682 30.211 16.1872 30.2537Z" fill="#00ACEE"/>
<path d="M16.1874 30.2533C16.1686 30.2106 16.1339 30.1794 16.1028 30.1473C15.8925 29.9306 15.6768 29.7187 15.4693 29.4994C15.3531 29.3767 15.2288 29.2619 15.1161 29.1363C15.011 29.0193 14.893 28.9153 14.7881 28.7987C14.6693 28.6666 14.5397 28.5453 14.4165 28.4177C14.3929 28.3933 14.3735 28.3648 14.349 28.3414C14.3168 28.3107 14.3265 28.2971 14.3649 28.2906C14.3729 28.3373 14.4086 28.3528 14.448 28.3627C14.5297 28.3834 14.6138 28.3863 14.6971 28.3916C15.138 28.4194 15.5745 28.3793 16.0073 28.2971C16.5441 28.1952 17.0628 28.035 17.557 27.7997C17.5851 27.7864 17.6041 27.7938 17.6274 27.8065C18.0849 28.0562 18.5595 28.268 19.0487 28.4476C19.6309 28.6615 20.2263 28.8283 20.8329 28.9566C21.2356 29.0418 21.6413 29.109 22.0497 29.159C22.433 29.2059 22.8177 29.2383 23.2035 29.2563C23.6307 29.2762 24.0577 29.2803 24.4849 29.2645C24.9444 29.2475 25.4023 29.212 25.8587 29.1547C26.5031 29.0738 27.1394 28.9527 27.7665 28.784C28.775 28.5128 29.737 28.1299 30.632 27.5868C30.6418 27.5808 30.6504 27.5709 30.6639 27.5727L30.6632 27.5718C30.6667 27.5954 30.6475 27.608 30.6365 27.6237C29.8833 28.7055 28.9019 29.5161 27.716 30.0852C27.0163 30.421 26.2827 30.6477 25.5198 30.7842C24.9726 30.8821 24.4211 30.9384 23.8664 30.9693C23.4105 30.9949 22.9545 31.0004 22.4981 30.9997C21.799 30.9985 21.0999 31.0017 20.4009 30.9958C19.9258 30.9919 19.4516 30.9641 18.9785 30.9177C18.3317 30.8543 17.6931 30.7475 17.068 30.567C16.781 30.4842 16.4993 30.3865 16.2239 30.2711C16.2162 30.2678 16.209 30.263 16.2016 30.259C16.1971 30.2569 16.1926 30.2548 16.188 30.2527L16.1874 30.2533Z" fill="#00ACEE"/>
<path d="M18.6445 18.083C18.6155 18.083 18.597 18.083 18.5785 18.083C17.676 18.083 16.7734 18.0825 15.8709 18.0842C15.8208 18.0843 15.8094 18.0715 15.8099 18.0226C15.8126 17.7662 15.8119 17.5097 15.8104 17.2534C15.8102 17.2164 15.8174 17.2041 15.8576 17.2041C17.1874 17.2052 18.5172 17.2052 19.8472 17.2043C19.8841 17.2043 19.8974 17.2117 19.8967 17.2517C19.8945 17.3748 19.8968 17.4979 19.8693 17.6189C19.833 17.7784 19.7581 17.9181 19.6563 18.0455C18.9522 18.9265 18.249 19.8081 17.5455 20.6895C17.3515 20.9325 17.1577 21.1759 16.964 21.4191C16.9536 21.4321 16.9438 21.4457 16.9272 21.4675C16.9536 21.4675 16.9714 21.4675 16.9892 21.4675C17.9397 21.4675 18.89 21.468 19.8404 21.4661C19.8957 21.466 19.9069 21.4821 19.9055 21.5335C19.9018 21.6651 19.9049 21.7968 19.904 21.9283C19.9028 22.1273 19.757 22.2784 19.5581 22.2875C19.5444 22.2881 19.5308 22.2879 19.517 22.2879C18.2641 22.2879 17.0112 22.2876 15.7582 22.2893C15.7071 22.2894 15.6964 22.275 15.6979 22.227C15.7019 22.0905 15.6918 21.9532 15.723 21.8186C15.7501 21.7017 15.8073 21.5998 15.8823 21.5068C16.7934 20.3779 17.7043 19.2488 18.6153 18.1198C18.6226 18.1109 18.6298 18.1017 18.6445 18.083Z" fill="#00ACEE"/>
<path d="M23.2814 18.7195C23.2814 18.6377 23.2828 18.5667 23.2808 18.4956C23.2797 18.4618 23.2873 18.4476 23.3252 18.4478C23.5696 18.4495 23.814 18.4499 24.0584 18.4475C24.1035 18.4471 24.1021 18.4691 24.1021 18.5007C24.1016 18.9741 24.1018 19.4475 24.1018 19.9208C24.1018 20.6899 24.1013 21.4589 24.1029 22.228C24.103 22.2765 24.0926 22.2919 24.0419 22.2903C23.9174 22.2863 23.7925 22.2892 23.6677 22.2889C23.4496 22.2886 23.3164 22.1745 23.282 21.959C23.2812 21.9541 23.2793 21.9494 23.2767 21.9401C22.7626 22.2948 22.2026 22.4083 21.597 22.2534C21.1496 22.139 20.7872 21.8896 20.5091 21.5214C19.9605 20.7948 19.98 19.7975 20.5574 19.0751C20.7717 18.8069 21.0415 18.6108 21.3601 18.4819C21.6771 18.3536 22.006 18.3135 22.3447 18.3529C22.6849 18.3925 22.9938 18.5156 23.2814 18.7195ZM23.2725 20.3286C23.2717 19.6814 22.7482 19.1587 22.1017 19.1594C21.4559 19.1603 20.9303 19.686 20.9313 20.3303C20.9324 20.9741 21.4604 21.5008 22.1044 21.5003C22.7517 21.4997 23.2732 20.9768 23.2725 20.3286Z" fill="#00ACEE"/>
<path d="M28.2669 18.3052C29.3739 18.3054 30.2754 19.2085 30.2736 20.3153C30.272 21.4203 29.3702 22.321 28.2666 22.32C27.1587 22.3191 26.2581 21.4166 26.261 20.3099C26.2638 19.2023 27.1616 18.305 28.2669 18.3052ZM27.0874 20.3216C27.0882 20.9736 27.6174 21.5014 28.269 21.5C28.92 21.4985 29.4438 20.9737 29.4444 20.3221C29.445 19.6674 28.9214 19.1425 28.2671 19.1419C27.6148 19.1413 27.0867 19.6694 27.0874 20.3216Z" fill="#00ACEE"/>
<path d="M25.6786 19.7475C25.6786 20.5748 25.6781 21.402 25.68 22.2292C25.6801 22.2804 25.6658 22.2905 25.6177 22.2896C25.4537 22.2864 25.2896 22.2887 25.1255 22.2884C24.9236 22.2879 24.8032 22.1681 24.8032 21.9664C24.803 20.3974 24.8033 18.8284 24.802 17.2593C24.802 17.2116 24.8175 17.204 24.8603 17.2044C25.1149 17.2064 25.3696 17.2067 25.6242 17.2041C25.6705 17.2036 25.6798 17.2166 25.6797 17.2608C25.6783 18.0897 25.6786 18.9186 25.6786 19.7475Z" fill="#00ACEE"/>
<path d="M15.9238 11.004C15.9222 11.0053 15.9207 11.0078 15.9192 11.0077C15.9178 11.0077 15.9163 11.0052 15.9148 11.0037C15.9164 11.0024 15.9179 10.9999 15.9194 11C15.9208 11 15.9223 11.0025 15.9238 11.004Z" fill="#00ACEE"/>
<path d="M30.6638 27.5743C30.6654 27.5715 30.6671 27.5688 30.6688 27.5659C30.6698 27.5683 30.6708 27.5706 30.6719 27.573C30.6689 27.5731 30.6661 27.5731 30.6631 27.5732C30.663 27.5732 30.6638 27.5743 30.6638 27.5743Z" fill="#00ACEE"/>
<path d="M16.1877 30.2534C16.1924 30.2555 16.197 30.2578 16.2018 30.2599C16.197 30.2578 16.1924 30.2556 16.1877 30.2534Z" fill="#00ACEE"/>
</svg>
