<svg width="100" height="18" viewBox="0 0 100 18" fill="none" xmlns="http://www.w3.org/2000/svg">
<path d="M8.55328 -0.000976562L11.0268 5.14778L16.6879 5.90919L12.5555 9.85271L13.5808 15.472L8.55328 12.7605L3.52579 15.472L4.55103 9.85271L0.418627 5.90919L6.07975 5.14778L8.55328 -0.000976562Z" fill="#FFC802"/>
<path d="M29.2767 -0.000976562L31.7502 5.14778L37.4113 5.90919L33.2789 9.85271L34.3042 15.472L29.2767 12.7605L24.2492 15.472L25.2744 9.85271L21.142 5.90919L26.8031 5.14778L29.2767 -0.000976562Z" fill="#FFC802"/>
<path d="M50.0001 -0.000976562L52.4736 5.14778L58.1347 5.90919L54.0023 9.85271L55.0275 15.472L50.0001 12.7605L44.9726 15.472L45.9978 9.85271L41.8654 5.90919L47.5265 5.14778L50.0001 -0.000976562Z" fill="#FFC802"/>
<path d="M70.7233 -0.000976562L73.1968 5.14778L78.858 5.90919L74.7256 9.85271L75.7508 15.472L70.7233 12.7605L65.6958 15.472L66.7211 9.85271L62.5887 5.90919L68.2498 5.14778L70.7233 -0.000976562Z" fill="#FFC802"/>
<path d="M91.4467 -0.000976562L93.9202 5.14778L99.5814 5.90919L95.449 9.85271L96.4742 15.472L91.4467 12.7605L86.4192 15.472L87.4445 9.85271L83.3121 5.90919L88.9732 5.14778L91.4467 -0.000976562Z" fill="#DCDCDC"/>
<path d="M91.4135 0.00683594V12.7683L86.386 15.4799L87.4112 9.86052L83.2788 5.917L88.9399 5.1556L91.4135 0.00683594Z" fill="#FFC802"/>
</svg>
