<svg width="24" height="25" viewBox="0 0 24 25" fill="none" xmlns="http://www.w3.org/2000/svg">
<mask id="mask0_892_1764" style="mask-type:alpha" maskUnits="userSpaceOnUse" x="0" y="0" width="24" height="25">
<rect y="0.875" width="24" height="24" fill="#D9D9D9"/>
</mask>
<g mask="url(#mask0_892_1764)">
<path d="M5.85 17.975C6.7 17.325 7.65 16.8125 8.7 16.4375C9.75 16.0625 10.85 15.875 12 15.875C13.15 15.875 14.25 16.0625 15.3 16.4375C16.35 16.8125 17.3 17.325 18.15 17.975C18.7333 17.2917 19.1875 16.5167 19.5125 15.65C19.8375 14.7833 20 13.8583 20 12.875C20 10.6583 19.2208 8.77083 17.6625 7.2125C16.1042 5.65417 14.2167 4.875 12 4.875C9.78333 4.875 7.89583 5.65417 6.3375 7.2125C4.77917 8.77083 4 10.6583 4 12.875C4 13.8583 4.1625 14.7833 4.4875 15.65C4.8125 16.5167 5.26667 17.2917 5.85 17.975ZM12 13.875C11.0167 13.875 10.1875 13.5375 9.5125 12.8625C8.8375 12.1875 8.5 11.3583 8.5 10.375C8.5 9.39167 8.8375 8.5625 9.5125 7.8875C10.1875 7.2125 11.0167 6.875 12 6.875C12.9833 6.875 13.8125 7.2125 14.4875 7.8875C15.1625 8.5625 15.5 9.39167 15.5 10.375C15.5 11.3583 15.1625 12.1875 14.4875 12.8625C13.8125 13.5375 12.9833 13.875 12 13.875ZM12 22.875C10.6167 22.875 9.31667 22.6125 8.1 22.0875C6.88333 21.5625 5.825 20.85 4.925 19.95C4.025 19.05 3.3125 17.9917 2.7875 16.775C2.2625 15.5583 2 14.2583 2 12.875C2 11.4917 2.2625 10.1917 2.7875 8.975C3.3125 7.75833 4.025 6.7 4.925 5.8C5.825 4.9 6.88333 4.1875 8.1 3.6625C9.31667 3.1375 10.6167 2.875 12 2.875C13.3833 2.875 14.6833 3.1375 15.9 3.6625C17.1167 4.1875 18.175 4.9 19.075 5.8C19.975 6.7 20.6875 7.75833 21.2125 8.975C21.7375 10.1917 22 11.4917 22 12.875C22 14.2583 21.7375 15.5583 21.2125 16.775C20.6875 17.9917 19.975 19.05 19.075 19.95C18.175 20.85 17.1167 21.5625 15.9 22.0875C14.6833 22.6125 13.3833 22.875 12 22.875ZM12 20.875C12.8833 20.875 13.7167 20.7458 14.5 20.4875C15.2833 20.2292 16 19.8583 16.65 19.375C16 18.8917 15.2833 18.5208 14.5 18.2625C13.7167 18.0042 12.8833 17.875 12 17.875C11.1167 17.875 10.2833 18.0042 9.5 18.2625C8.71667 18.5208 8 18.8917 7.35 19.375C8 19.8583 8.71667 20.2292 9.5 20.4875C10.2833 20.7458 11.1167 20.875 12 20.875ZM12 11.875C12.4333 11.875 12.7917 11.7333 13.075 11.45C13.3583 11.1667 13.5 10.8083 13.5 10.375C13.5 9.94167 13.3583 9.58333 13.075 9.3C12.7917 9.01667 12.4333 8.875 12 8.875C11.5667 8.875 11.2083 9.01667 10.925 9.3C10.6417 9.58333 10.5 9.94167 10.5 10.375C10.5 10.8083 10.6417 11.1667 10.925 11.45C11.2083 11.7333 11.5667 11.875 12 11.875Z" fill="#989898"/>
</g>
</svg>
