<svg width="34" height="34" viewBox="0 0 34 34" fill="none" xmlns="http://www.w3.org/2000/svg">
<path d="M0.511523 19.8399V14.9957H6.71811L12.0164 15.8283L12.3949 14.92L8.08053 11.741L3.69051 7.351L7.09656 3.94494L11.4866 8.25928L14.6656 12.6493L15.5739 12.2709L14.7413 6.89686V0.765959H19.5854V6.89686L18.7528 12.2709L19.6611 12.6493L22.8401 8.25928L27.2301 3.94494L30.6362 7.351L26.3218 11.741L21.9318 14.92L22.3103 15.8283L27.6086 14.9957H33.8152V19.8399H27.6086L22.3103 19.0073L21.9318 19.9156L26.3218 23.0945L30.6362 27.4846L27.2301 30.8906L22.8401 26.5006L19.6611 22.1106L18.7528 22.489L19.5854 27.863V33.9939H14.7413V27.863L15.5739 22.489L14.6656 22.1106L11.4866 26.5006L7.09656 30.8906L3.69051 27.4846L8.08053 23.0945L12.3949 19.9156L12.0164 19.0073L6.71811 19.8399H0.511523Z" fill="#FFC9EB"/>
</svg>
