<svg width="64" height="64" viewBox="0 0 64 64" fill="none" xmlns="http://www.w3.org/2000/svg">
<path d="M0 32C0 14.3269 14.3269 0 32 0C49.6731 0 64 14.3269 64 32C64 49.6731 49.6731 64 32 64C14.3269 64 0 49.6731 0 32Z" fill="white"/>
<path d="M30.4001 27.3599L25.7601 31.9999C25.4667 32.2933 25.0934 32.4399 24.6401 32.4399C24.1867 32.4399 23.8134 32.2933 23.5201 31.9999C23.2267 31.7066 23.0801 31.3333 23.0801 30.8799C23.0801 30.4266 23.2267 30.0533 23.5201 29.7599L30.8801 22.3999C31.2001 22.0799 31.5734 21.9199 32.0001 21.9199C32.4267 21.9199 32.8001 22.0799 33.1201 22.3999L40.4801 29.7599C40.7734 30.0533 40.9201 30.4266 40.9201 30.8799C40.9201 31.3333 40.7734 31.7066 40.4801 31.9999C40.1867 32.2933 39.8134 32.4399 39.3601 32.4399C38.9067 32.4399 38.5334 32.2933 38.2401 31.9999L33.6001 27.3599V40.4799C33.6001 40.9333 33.4467 41.3133 33.1401 41.6199C32.8334 41.9266 32.4534 42.0799 32.0001 42.0799C31.5467 42.0799 31.1667 41.9266 30.8601 41.6199C30.5534 41.3133 30.4001 40.9333 30.4001 40.4799V27.3599Z" fill="#E50C75"/>
</svg>
