<svg width="40" height="41" viewBox="0 0 40 41" fill="none" xmlns="http://www.w3.org/2000/svg">
<path d="M0 20.875C0 9.82931 8.95431 0.875 20 0.875C31.0457 0.875 40 9.82931 40 20.875C40 31.9207 31.0457 40.875 20 40.875C8.95431 40.875 0 31.9207 0 20.875Z" fill="#F7F7F7"/>
<path d="M14.2256 31.979C13.9713 31.8809 13.7275 31.7599 13.4859 31.6346C12.4234 31.0826 11.4989 30.3571 10.7286 29.4383C10.1624 28.7629 9.71557 28.014 9.35831 27.2102C9.03332 26.479 8.81066 25.7164 8.66534 24.9302C8.53985 24.2519 8.46904 23.5677 8.43123 22.8794C8.40648 22.4286 8.39478 21.9778 8.39502 21.5264C8.39576 20.628 8.39268 19.7295 8.39786 18.8311C8.40192 18.1315 8.4412 17.4334 8.5215 16.7382C8.64046 15.7085 8.85856 14.7027 9.2561 13.7413C9.75412 12.5368 10.4525 11.4668 11.395 10.561C12.1142 9.86979 12.9356 9.32904 13.8345 8.90207C13.8503 8.89456 13.8652 8.88064 13.8858 8.88594C13.8926 8.9017 13.8791 8.90774 13.8716 8.915C13.0001 9.75489 12.3382 10.7422 11.8211 11.831C11.4067 12.7035 11.1021 13.6141 10.8826 14.554C10.7552 15.099 10.6579 15.6494 10.5903 16.2048C10.4726 17.1719 10.4383 18.1424 10.4913 19.1154C10.5656 20.4801 10.7961 21.8168 11.2229 23.1172C11.6132 24.3063 12.1525 25.4202 12.8978 26.4308C13.1095 26.7179 13.1713 27.0516 13.1402 27.3998C13.0668 28.219 12.6905 28.8956 12.1371 29.4853C12.0979 29.5271 12.0534 29.5648 12.0386 29.6238C11.9925 29.6316 11.9808 29.648 12.0195 29.6847C12.0489 29.7127 12.0722 29.747 12.1005 29.7763C12.2484 29.9294 12.4038 30.075 12.5465 30.2335C12.6723 30.3734 12.8141 30.4981 12.94 30.6386C13.0753 30.7894 13.2244 30.9271 13.3638 31.0744C13.6129 31.3375 13.8717 31.5916 14.124 31.8518C14.1613 31.8904 14.2028 31.9278 14.2256 31.979Z" fill="#1358C7"/>
<path d="M14.2257 31.9795C14.2031 31.9283 14.1615 31.8909 14.1241 31.8523C13.8718 31.5922 13.6129 31.338 13.3639 31.0749C13.2245 30.9276 13.0754 30.7899 12.9402 30.6392C12.8141 30.4988 12.6724 30.3739 12.5466 30.234C12.404 30.0755 12.2484 29.9299 12.1006 29.7769C12.0723 29.7475 12.049 29.7133 12.0196 29.6852C11.9809 29.6484 11.9926 29.6322 12.0387 29.6243C12.0483 29.6803 12.0912 29.6989 12.1384 29.7108C12.2365 29.7356 12.3373 29.7392 12.4373 29.7455C12.9664 29.7788 13.4903 29.7308 14.0096 29.6322C14.6537 29.5099 15.2762 29.3176 15.8692 29.0352C15.9029 29.0192 15.9257 29.0281 15.9537 29.0434C16.5027 29.343 17.0721 29.5972 17.6592 29.8127C18.3578 30.0693 19.0724 30.2696 19.8003 30.4235C20.2834 30.5257 20.7704 30.6064 21.2604 30.6664C21.7204 30.7227 22.1819 30.7616 22.645 30.7831C23.1575 30.807 23.67 30.8119 24.1826 30.793C24.734 30.7725 25.2835 30.7299 25.8311 30.6612C26.6044 30.5642 27.3679 30.4188 28.1205 30.2164C29.3307 29.8909 30.485 29.4314 31.559 28.7797C31.5709 28.7726 31.5812 28.7606 31.5973 28.7628L31.5965 28.7617C31.6007 28.79 31.5776 28.8052 31.5645 28.824C30.6606 30.1222 29.483 31.0949 28.0599 31.7778C27.2203 32.1808 26.34 32.4528 25.4245 32.6166C24.7679 32.7341 24.106 32.8016 23.4404 32.8388C22.8934 32.8694 22.3461 32.8761 21.7984 32.8752C20.9595 32.8737 20.1206 32.8776 19.2818 32.8705C18.7118 32.8659 18.1427 32.8325 17.575 32.7768C16.7989 32.7007 16.0325 32.5725 15.2824 32.356C14.938 32.2566 14.6 32.1394 14.2695 32.0008C14.2602 31.9969 14.2516 31.9911 14.2427 31.9863C14.2373 31.9838 14.2319 31.9813 14.2264 31.9788L14.2257 31.9795Z" fill="#1358C7"/>
<path d="M17.1745 17.375C17.1396 17.375 17.1175 17.375 17.0953 17.375C16.0123 17.375 14.9292 17.3744 13.8462 17.3765C13.7861 17.3766 13.7724 17.3612 13.7731 17.3024C13.7763 16.9948 13.7754 16.6871 13.7735 16.3794C13.7733 16.3351 13.782 16.3203 13.8302 16.3203C15.426 16.3217 17.0218 16.3217 18.6177 16.3206C18.662 16.3206 18.6779 16.3294 18.6771 16.3775C18.6745 16.5251 18.6772 16.6729 18.6442 16.8181C18.6007 17.0095 18.5108 17.1771 18.3886 17.33C17.5437 18.3872 16.6999 19.445 15.8557 20.5028C15.6229 20.7944 15.3904 21.0864 15.1579 21.3783C15.1455 21.3939 15.1336 21.4102 15.1138 21.4364C15.1455 21.4364 15.1668 21.4364 15.1882 21.4364C16.3287 21.4364 17.4691 21.437 18.6096 21.4347C18.676 21.4345 18.6894 21.4539 18.6877 21.5156C18.6832 21.6735 18.6869 21.8315 18.6859 21.9893C18.6845 22.2281 18.5095 22.4094 18.2708 22.4204C18.2544 22.4211 18.238 22.4209 18.2215 22.4209C16.718 22.4209 15.2145 22.4205 13.711 22.4225C13.6497 22.4226 13.6369 22.4053 13.6386 22.3477C13.6434 22.1839 13.6313 22.0191 13.6687 21.8577C13.7013 21.7174 13.7699 21.5951 13.8599 21.4836C14.9532 20.1289 16.0463 18.774 17.1394 17.4192C17.1483 17.4085 17.1569 17.3974 17.1745 17.375Z" fill="#1358C7"/>
<path d="M22.7385 18.138C22.7385 18.0398 22.7402 17.9546 22.7378 17.8694C22.7365 17.8287 22.7456 17.8118 22.7911 17.812C23.0843 17.814 23.3777 17.8145 23.6709 17.8116C23.7251 17.8111 23.7233 17.8375 23.7233 17.8754C23.7227 18.4435 23.723 19.0116 23.723 19.5796C23.723 20.5025 23.7224 21.4253 23.7243 22.3482C23.7245 22.4064 23.712 22.4249 23.6512 22.4229C23.5017 22.4181 23.3518 22.4216 23.202 22.4213C22.9403 22.4209 22.7805 22.284 22.7392 22.0254C22.7383 22.0195 22.736 22.0138 22.7328 22.0027C22.116 22.4283 21.4439 22.5645 20.7172 22.3787C20.1804 22.2414 19.7456 21.9421 19.4118 21.5003C18.7535 20.6283 18.7768 19.4316 19.4697 18.5647C19.727 18.2429 20.0507 18.0076 20.433 17.8529C20.8134 17.6989 21.2081 17.6508 21.6145 17.6981C22.0227 17.7456 22.3934 17.8933 22.7385 18.138ZM22.7278 20.0689C22.7269 19.2923 22.0987 18.6651 21.3229 18.6659C20.5479 18.6669 19.9172 19.2978 19.9185 20.071C19.9197 20.8435 20.5533 21.4755 21.3261 21.4749C22.1029 21.4743 22.7287 20.8467 22.7278 20.0689Z" fill="#1358C7"/>
<path d="M28.7213 17.6416C30.0496 17.6418 31.1314 18.7256 31.1293 20.0538C31.1273 21.3797 30.0452 22.4605 28.721 22.4594C27.3914 22.4583 26.3108 21.3753 26.3142 20.0472C26.3175 18.7182 27.395 17.6414 28.7213 17.6416ZM27.306 20.0613C27.3068 20.8437 27.9419 21.477 28.7238 21.4753C29.5049 21.4736 30.1335 20.8438 30.1342 20.0619C30.135 19.2763 29.5067 18.6464 28.7216 18.6457C27.9388 18.6449 27.3051 19.2787 27.306 20.0613Z" fill="#1358C7"/>
<path d="M25.6152 19.3724C25.6152 20.3651 25.6146 21.3577 25.6168 22.3504C25.6169 22.4118 25.5998 22.424 25.542 22.4228C25.3452 22.419 25.1483 22.4217 24.9514 22.4214C24.7092 22.4209 24.5647 22.277 24.5647 22.035C24.5645 20.1522 24.5648 18.2694 24.5632 16.3866C24.5632 16.3293 24.5818 16.3202 24.6332 16.3207C24.9387 16.323 25.2444 16.3234 25.5499 16.3203C25.6055 16.3197 25.6165 16.3354 25.6164 16.3883C25.6148 17.383 25.6152 18.3777 25.6152 19.3724Z" fill="#1358C7"/>
<path d="M13.9077 8.87896C13.9061 8.88032 13.9046 8.88279 13.9031 8.88266C13.9016 8.88266 13.9002 8.88019 13.8987 8.87871C13.9003 8.87735 13.9018 8.87488 13.9033 8.875C13.9047 8.875 13.9062 8.87747 13.9077 8.87896Z" fill="#1358C7"/>
<path d="M31.5973 28.7623C31.5989 28.7595 31.6005 28.7567 31.6023 28.7539C31.6032 28.7563 31.6042 28.7586 31.6053 28.7609C31.6024 28.7611 31.5995 28.7611 31.5966 28.7612C31.5964 28.7612 31.5973 28.7623 31.5973 28.7623Z" fill="#1358C7"/>
<path d="M14.2264 31.9785C14.232 31.9811 14.2376 31.9837 14.2433 31.9863C14.2376 31.9837 14.232 31.9812 14.2264 31.9785Z" fill="#1358C7"/>
</svg>
