<svg width="40" height="41" viewBox="0 0 40 41" fill="none" xmlns="http://www.w3.org/2000/svg">
<path d="M0 20.875C0 9.82931 8.95431 0.875 20 0.875C31.0457 0.875 40 9.82931 40 20.875C40 31.9207 31.0457 40.875 20 40.875C8.95431 40.875 0 31.9207 0 20.875Z" fill="#F7F7F7"/>
<path fill-rule="evenodd" clip-rule="evenodd" d="M28.9438 14.4211C29.2534 14.7661 29.4733 15.1932 29.5813 15.6594C29.8697 17.387 30.0097 19.1397 29.9995 20.8951C30.0052 22.6243 29.8653 24.3505 29.5813 26.0522C29.4733 26.5184 29.2534 26.9455 28.9438 27.2905C28.6341 27.6355 28.2457 27.886 27.8178 28.0168C26.2542 28.4687 20 28.4687 20 28.4687C20 28.4687 13.7458 28.4687 12.1822 28.0168C11.763 27.8929 11.3804 27.6542 11.0715 27.3238C10.7626 26.9934 10.5377 26.5825 10.4187 26.1308C10.1303 24.4032 9.99032 22.6505 10.0005 20.8951C9.99255 19.1528 10.1325 17.4134 10.4187 15.6987C10.5267 15.2325 10.7466 14.8054 11.0562 14.4604C11.3659 14.1155 11.7543 13.8649 12.1822 13.7341C13.7458 13.2822 20 13.2822 20 13.2822C20 13.2822 26.2542 13.2822 27.8178 13.6948C28.2457 13.8256 28.6341 14.0762 28.9438 14.4211ZM18.0683 24.0853L23.1817 20.8952L18.0683 17.7051V24.0853Z" fill="#C91515"/>
</svg>
