<svg xmlns="http://www.w3.org/2000/svg" xmlns:xlink="http://www.w3.org/1999/xlink" width="70" height="70"><defs><linearGradient id="c" x1="50%" x2="50%" y1="0%" y2="100%"><stop offset="0%" stop-color="#F769C5"/><stop offset="100%" stop-color="#E22182"/></linearGradient><filter id="a" width="170%" height="170%" x="-35%" y="-25%" filterUnits="objectBoundingBox"><feOffset dy="5" in="SourceAlpha" result="shadowOffsetOuter1"/><feGaussianBlur in="shadowOffsetOuter1" result="shadowBlurOuter1" stdDeviation="5"/><feColorMatrix in="shadowBlurOuter1" values="0 0 0 0 0 0 0 0 0 0 0 0 0 0 0 0 0 0 0.1 0"/></filter><path id="b" d="M50 25c0 13.807-11.193 25-25 25S0 38.807 0 25 11.193 0 25 0s25 11.193 25 25z"/></defs><g fill="none" fill-rule="evenodd" transform="translate(10 5)"><use fill="#000" filter="url(#a)" xlink:href="#b"/><use fill="url(#c)" xlink:href="#b"/><g fill="#FFF" fill-rule="nonzero"><path d="M17.464 21.834a5.939 5.939 0 005.932 5.932c3.27 0 5.932-2.66 5.932-5.932a5.94 5.94 0 00-5.932-5.932 5.939 5.939 0 00-5.932 5.932zm9.13 0c0 1.764-1.435 3.198-3.198 3.198s-3.198-1.434-3.198-3.198c0-1.763 1.435-3.197 3.198-3.197s3.198 1.434 3.198 3.197zm12.488 16.981l-3.318-3.694c.623-.906.99-2.003.99-3.183 0-3.103-2.525-5.628-5.628-5.628s-5.628 2.525-5.628 5.628 2.525 5.628 5.628 5.628c.933 0 1.814-.23 2.59-.634l3.331 3.71 2.035-1.827zm-10.85-6.877a2.897 2.897 0 012.894-2.893 2.897 2.897 0 012.893 2.893 2.896 2.896 0 01-2.893 2.893 2.896 2.896 0 01-2.894-2.893z"/><path d="M24.534 36.309c-.443.412-.83.76-1.138 1.03-2.467-2.162-10.043-9.28-10.043-15.16v-.344c0-5.538 4.505-10.043 10.043-10.043 5.537 0 10.043 4.505 10.043 10.043v.344a8.28 8.28 0 01-.293 2.108c.806.213 1.562.55 2.247.99.32-1.077.48-2.11.48-3.098v-.344c0-6.88-5.597-12.478-12.477-12.478S10.92 14.954 10.92 21.835v.344c0 3.48 1.995 7.534 5.93 12.052 2.851 3.274 5.664 5.558 5.782 5.653l.765.618.765-.618c.062-.05.862-.699 2.018-1.775a7.982 7.982 0 01-1.645-1.8z"/></g></g></svg>