<svg width="48" height="49" viewBox="0 0 48 49" fill="none" xmlns="http://www.w3.org/2000/svg">
<rect x="48" y="0.875" width="48" height="48" rx="24" transform="rotate(90 48 0.875)" fill="#D40261"/>
<mask id="mask0_652_757" style="mask-type:alpha" maskUnits="userSpaceOnUse" x="12" y="12" width="24" height="25">
<rect x="36" y="12.875" width="24" height="24" transform="rotate(90 36 12.875)" fill="#D9D9D9"/>
</mask>
<g mask="url(#mask0_652_757)">
<path d="M27.602 20.875L20.002 20.875C19.7186 20.875 19.4811 20.7792 19.2895 20.5875C19.0978 20.3958 19.002 20.1583 19.002 19.875C19.002 19.5917 19.0978 19.3542 19.2895 19.1625C19.4811 18.9708 19.7186 18.875 20.002 18.875L30.002 18.875C30.2853 18.875 30.5228 18.9708 30.7145 19.1625C30.9061 19.3542 31.002 19.5917 31.002 19.875L31.002 29.875C31.002 30.1583 30.9061 30.3958 30.7145 30.5875C30.5228 30.7792 30.2853 30.875 30.002 30.875C29.7186 30.875 29.4811 30.7792 29.2895 30.5875C29.0978 30.3958 29.002 30.1583 29.002 29.875L29.002 22.275L20.102 31.175C19.9186 31.3583 19.6853 31.45 19.402 31.45C19.1186 31.45 18.8853 31.3583 18.702 31.175C18.5186 30.9917 18.427 30.7583 18.427 30.475C18.427 30.1917 18.5186 29.9583 18.702 29.775L27.602 20.875Z" fill="#FFE4F4"/>
</g>
</svg>
