<svg width="120" height="120" viewBox="0 0 120 120" fill="none" xmlns="http://www.w3.org/2000/svg">
<path d="M119.644 56.9391C117.264 45.5487 105.725 43.1994 96.9029 42.8672C88.0806 42.535 78.5732 42.535 78.5732 42.535L78.2967 37.9551C78.2246 44.1723 78.2366 58.4816 79.6549 64.3073C80.7006 68.6024 82.8161 72.5772 84.8714 75.2112C87.3955 76.5638 90.0398 77.8571 92.8283 79.0436C112.516 84.7507 122.012 68.3295 119.644 56.9391Z" fill="#E20E77"/>
<path d="M78.2969 37.9669L76.8786 14.0708C76.8786 14.0708 72.804 -0.665587 57.1907 1.00738C41.5774 2.66848 38.5245 16.4082 40.9043 25.4493C43.0919 33.7786 55.3758 59.4426 84.8716 75.2231C82.8163 72.589 80.7009 68.6024 79.6552 64.3191C78.2369 58.4934 78.2368 44.1723 78.2969 37.9669Z" fill="#2CAAE2"/>
<path d="M56.8058 119.266C45.2671 116.917 42.8872 105.526 42.5507 96.8175C42.2141 88.1086 42.2141 78.7234 42.2141 78.7234L37.5746 78.4505C43.8728 78.3793 58.3683 78.3912 64.2699 79.7912C68.6209 80.8235 72.6474 82.9117 75.3158 84.9407C76.686 87.4323 77.9961 90.0426 79.1981 92.7953C84.9674 112.23 68.3445 121.604 56.8058 119.266Z" fill="#E20E77"/>
<path d="M37.5748 78.4506L13.3676 77.0505C13.3676 77.0505 -1.56064 73.0283 0.134103 57.6156C1.82885 42.203 15.7474 39.1892 24.9063 41.5385C33.344 43.6979 59.3421 55.824 75.328 84.9407C72.6597 82.9118 68.6211 80.8236 64.2821 79.7913C58.3685 78.3912 43.861 78.3912 37.5748 78.4506Z" fill="#2CAAE2"/>
</svg>
