<svg width="24" height="25" viewBox="0 0 24 25" fill="none" xmlns="http://www.w3.org/2000/svg">
<mask id="mask0_630_2195" style="mask-type:alpha" maskUnits="userSpaceOnUse" x="0" y="0" width="24" height="25">
<rect y="0.4375" width="24" height="24" fill="#D9D9D9"/>
</mask>
<g mask="url(#mask0_630_2195)">
<path d="M19.95 21.4375C17.8667 21.4375 15.8083 20.9833 13.775 20.075C11.7417 19.1667 9.89167 17.8792 8.225 16.2125C6.55833 14.5458 5.27083 12.6958 4.3625 10.6625C3.45417 8.62917 3 6.57083 3 4.4875C3 4.1875 3.1 3.9375 3.3 3.7375C3.5 3.5375 3.75 3.4375 4.05 3.4375H8.1C8.33333 3.4375 8.54167 3.51667 8.725 3.675C8.90833 3.83333 9.01667 4.02083 9.05 4.2375L9.7 7.7375C9.73333 8.00417 9.725 8.22917 9.675 8.4125C9.625 8.59583 9.53333 8.75417 9.4 8.8875L6.975 11.3375C7.30833 11.9542 7.70417 12.55 8.1625 13.125C8.62083 13.7 9.125 14.2542 9.675 14.7875C10.1917 15.3042 10.7333 15.7833 11.3 16.225C11.8667 16.6667 12.4667 17.0708 13.1 17.4375L15.45 15.0875C15.6 14.9375 15.7958 14.825 16.0375 14.75C16.2792 14.675 16.5167 14.6542 16.75 14.6875L20.2 15.3875C20.4333 15.4542 20.625 15.575 20.775 15.75C20.925 15.925 21 16.1208 21 16.3375V20.3875C21 20.6875 20.9 20.9375 20.7 21.1375C20.5 21.3375 20.25 21.4375 19.95 21.4375Z" fill="#E50C75"/>
</g>
</svg>
