<svg width="48" height="49" viewBox="0 0 48 49" fill="none" xmlns="http://www.w3.org/2000/svg">
<mask id="mask0_177_8830" style="mask-type:alpha" maskUnits="userSpaceOnUse" x="0" y="0" width="48" height="49">
<rect y="0.875" width="48" height="48" fill="#D9D9D9"/>
</mask>
<g mask="url(#mask0_177_8830)">
<path d="M26.0615 24.875L20.946 29.9905C20.6693 30.2642 20.531 30.6063 20.531 31.017C20.531 31.4273 20.6693 31.7813 20.946 32.079C21.2437 32.389 21.6002 32.5408 22.0155 32.5345C22.4308 32.5282 22.7872 32.3763 23.0845 32.079L29.023 26.1405C29.3847 25.7788 29.5655 25.357 29.5655 24.875C29.5655 24.393 29.3847 23.9712 29.023 23.6095L23.054 17.6405C22.7563 17.3432 22.405 17.1963 22 17.2C21.595 17.204 21.2437 17.361 20.946 17.671C20.6693 17.9687 20.529 18.32 20.525 18.725C20.5213 19.13 20.6682 19.4813 20.9655 19.779L26.0615 24.875ZM24.0035 43.875C21.3755 43.875 18.9053 43.3763 16.593 42.379C14.2807 41.3817 12.2693 40.0282 10.559 38.3185C8.84867 36.6088 7.4945 34.5983 6.4965 32.287C5.49883 29.9757 5 27.5062 5 24.8785C5 22.2505 5.49867 19.7803 6.496 17.468C7.49333 15.1557 8.84683 13.1443 10.5565 11.434C12.2662 9.72367 14.2767 8.3695 16.588 7.3715C18.8993 6.37383 21.3688 5.875 23.9965 5.875C26.6245 5.875 29.0947 6.37367 31.407 7.371C33.7193 8.36833 35.7307 9.72183 37.441 11.4315C39.1513 13.1412 40.5055 15.1517 41.5035 17.463C42.5012 19.7743 43 22.2438 43 24.8715C43 27.4995 42.5013 29.9697 41.504 32.282C40.5067 34.5943 39.1532 36.6057 37.4435 38.316C35.7338 40.0263 33.7233 41.3805 31.412 42.3785C29.1007 43.3762 26.6312 43.875 24.0035 43.875Z" fill="#00ACEE"/>
</g>
</svg>
