<svg width="28" height="28" viewBox="0 0 28 28" fill="none" xmlns="http://www.w3.org/2000/svg">
<path d="M27.9169 13.2202C27.3616 10.5343 24.6692 9.98029 22.6107 9.90195C20.5521 9.82361 18.3337 9.82361 18.3337 9.82361L18.2692 8.74365C18.2523 10.2097 18.2552 13.5839 18.5861 14.9576C18.8301 15.9704 19.3237 16.9077 19.8033 17.5288C20.3922 17.8478 21.0093 18.1527 21.6599 18.4325C26.2538 19.7783 28.4695 15.9061 27.9169 13.2202Z" fill="#E20E77"/>
<path d="M18.2695 8.74642L17.9386 3.11162C17.9386 3.11162 16.9878 -0.363277 13.3447 0.0312157C9.7015 0.42291 8.98913 3.66279 9.54444 5.79472C10.0549 7.75879 12.9212 13.8105 19.8036 17.5316C19.324 16.9105 18.8304 15.9704 18.5864 14.9604C18.2555 13.5867 18.2555 10.2097 18.2695 8.74642Z" fill="#2CAAE2"/>
<path d="M13.255 27.9172C10.5626 27.3633 10.0073 24.6773 9.9288 22.6237C9.85027 20.5701 9.85027 18.3571 9.85027 18.3571L8.7677 18.2927C10.2373 18.2759 13.6196 18.2787 14.9967 18.6089C16.0119 18.8523 16.9515 19.3447 17.5741 19.8231C17.8938 20.4107 18.1995 21.0262 18.48 21.6753C19.8262 26.2581 15.9474 28.4684 13.255 27.9172Z" fill="#E20E77"/>
<path d="M8.76757 18.2927L3.11914 17.9625C3.11914 17.9625 -0.364155 17.0141 0.0312912 13.3797C0.426738 9.74533 3.67445 9.03469 5.81154 9.58865C7.78036 10.0979 13.8467 12.9572 17.5768 19.8231C16.9542 19.3447 16.0118 18.8522 14.9994 18.6088C13.6195 18.2787 10.2344 18.2787 8.76757 18.2927Z" fill="#2CAAE2"/>
</svg>
