<?xml version="1.0" encoding="UTF-8"?> <svg xmlns="http://www.w3.org/2000/svg" width="56" height="57" viewBox="0 0 56 57" fill="none"><path d="M0 28.875C0 13.411 12.536 0.875 28 0.875C43.464 0.875 56 13.411 56 28.875C56 44.339 43.464 56.875 28 56.875C12.536 56.875 0 44.339 0 28.875Z" fill="#DEF3FF"></path><path d="M43.1271 16.5504C41.8102 17.4794 40.352 18.1899 38.8089 18.6546C37.9806 17.7022 36.8799 17.0272 35.6555 16.7209C34.4312 16.4145 33.1423 16.4916 31.9631 16.9416C30.784 17.3917 29.7715 18.193 29.0626 19.2373C28.3537 20.2815 27.9827 21.5182 27.9996 22.7802V24.1555C25.5828 24.2181 23.188 23.6821 21.0286 22.5952C18.8691 21.5083 17.0119 19.9041 15.6225 17.9257C15.6225 17.9257 10.1216 30.3027 22.4987 35.8037C19.6664 37.7262 16.2925 38.6902 12.8721 38.5541C25.2491 45.4303 40.3766 38.5541 40.3766 22.739C40.3754 22.3559 40.3386 21.9738 40.2666 21.5975C41.6702 20.2134 42.6607 18.4657 43.1271 16.5504Z" fill="#0072AB"></path></svg> 