<?xml version="1.0" encoding="UTF-8"?> <svg xmlns="http://www.w3.org/2000/svg" width="40" height="41" viewBox="0 0 40 41" fill="none"><path d="M0 20.875C0 9.82931 8.95431 0.875 20 0.875C31.0457 0.875 40 9.82931 40 20.875C40 31.9207 31.0457 40.875 20 40.875C8.95431 40.875 0 31.9207 0 20.875Z" fill="#F7F7F7"></path><path d="M23.9292 17.4368C25.4923 17.4368 26.9914 18.0578 28.0967 19.1631C29.2021 20.2684 29.823 21.7675 29.823 23.3306V30.2068H25.8938V23.3306C25.8938 22.8096 25.6868 22.3099 25.3184 21.9415C24.9499 21.573 24.4502 21.366 23.9292 21.366C23.4081 21.366 22.9084 21.573 22.54 21.9415C22.1715 22.3099 21.9646 22.8096 21.9646 23.3306V30.2068H18.0353V23.3306C18.0353 21.7675 18.6563 20.2684 19.7616 19.1631C20.8669 18.0578 22.366 17.4368 23.9292 17.4368Z" fill="#007BB5"></path><path d="M14.1061 18.4191H10.1769V30.2068H14.1061V18.4191Z" fill="#007BB5"></path><path d="M12.1415 15.4722C13.2265 15.4722 14.1061 14.5926 14.1061 13.5076C14.1061 12.4226 13.2265 11.543 12.1415 11.543C11.0565 11.543 10.1769 12.4226 10.1769 13.5076C10.1769 14.5926 11.0565 15.4722 12.1415 15.4722Z" fill="#007BB5"></path></svg> 