<?xml version="1.0" encoding="UTF-8"?> <svg xmlns="http://www.w3.org/2000/svg" width="56" height="57" viewBox="0 0 56 57" fill="none"><path d="M0 28.875C0 13.411 12.536 0.875 28 0.875C43.464 0.875 56 13.411 56 28.875C56 44.339 43.464 56.875 28 56.875C12.536 56.875 0 44.339 0 28.875Z" fill="#DEF3FF"></path><path d="M19.9161 44.4213C19.5601 44.2839 19.2187 44.1146 18.8804 43.9391C17.393 43.1663 16.0987 42.1507 15.0203 40.8643C14.2276 39.9188 13.602 38.8703 13.1019 37.745C12.6469 36.7212 12.3352 35.6537 12.1317 34.553C11.956 33.6033 11.8569 32.6454 11.804 31.6818C11.7693 31.0508 11.7529 30.4196 11.7533 29.7877C11.7543 28.5299 11.75 27.272 11.7572 26.0143C11.7629 25.0348 11.8179 24.0574 11.9303 23.0841C12.0969 21.6426 12.4022 20.2345 12.9588 18.8885C13.656 17.2021 14.6338 15.7042 15.9532 14.4361C16.9601 13.4684 18.1101 12.7113 19.3685 12.1136C19.3906 12.1031 19.4115 12.0836 19.4404 12.091C19.4499 12.1131 19.4309 12.1215 19.4204 12.1317C18.2004 13.3075 17.2737 14.6898 16.5498 16.2141C15.9696 17.4356 15.5432 18.7104 15.2358 20.0263C15.0575 20.7893 14.9213 21.5599 14.8267 22.3374C14.6619 23.6914 14.6139 25.05 14.6881 26.4122C14.792 28.3229 15.1148 30.1942 15.7124 32.0147C16.2587 33.6795 17.0137 35.239 18.0572 36.6538C18.3535 37.0557 18.4401 37.5229 18.3965 38.0104C18.2937 39.1572 17.767 40.1045 16.9922 40.9301C16.9374 40.9886 16.8749 41.0414 16.8543 41.1239C16.7898 41.135 16.7734 41.1579 16.8275 41.2093C16.8687 41.2484 16.9013 41.2965 16.941 41.3376C17.148 41.5519 17.3656 41.7557 17.5653 41.9775C17.7415 42.1734 17.9399 42.3481 18.1163 42.5448C18.3056 42.7558 18.5144 42.9486 18.7096 43.1548C19.0584 43.5232 19.4206 43.8789 19.7739 44.2432C19.8261 44.2972 19.8842 44.3496 19.9161 44.4213Z" fill="#0072AB"></path><path d="M19.9161 44.4215C19.8844 44.3497 19.8261 44.2973 19.7738 44.2434C19.4206 43.8792 19.0582 43.5234 18.7095 43.1549C18.5144 42.9487 18.3056 42.756 18.1163 42.5449C17.9397 42.3484 17.7414 42.1735 17.5652 41.9777C17.3656 41.7558 17.1478 41.552 16.9409 41.3377C16.9013 41.2967 16.8687 41.2487 16.8275 41.2094C16.7734 41.1579 16.7897 41.1351 16.8542 41.1241C16.8677 41.2025 16.9277 41.2286 16.9939 41.2453C17.1311 41.2799 17.2723 41.2849 17.4123 41.2937C18.153 41.3405 18.8864 41.2732 19.6135 41.1351C20.5152 40.9639 21.3868 40.6948 22.2169 40.2994C22.2642 40.277 22.2961 40.2894 22.3352 40.3108C23.1038 40.7303 23.901 41.0861 24.7229 41.3879C25.701 41.7472 26.7013 42.0275 27.7205 42.243C28.3968 42.3861 29.0786 42.4991 29.7646 42.583C30.4085 42.6618 31.0547 42.7163 31.703 42.7465C32.4206 42.7799 33.138 42.7868 33.8557 42.7603C34.6276 42.7316 35.3969 42.672 36.1637 42.5758C37.2462 42.4399 38.3152 42.2365 39.3688 41.953C41.0631 41.4973 42.6791 40.8541 44.1827 39.9417C44.1992 39.9317 44.2137 39.915 44.2363 39.9181L44.2351 39.9165C44.241 39.9562 44.2087 39.9774 44.1903 40.0037C42.925 41.8211 41.2762 43.183 39.284 44.139C38.1085 44.7032 36.8761 45.084 35.5943 45.3133C34.675 45.4778 33.7485 45.5723 32.8166 45.6244C32.0508 45.6673 31.2846 45.6766 30.5179 45.6754C29.3434 45.6733 28.1689 45.6787 26.9946 45.6689C26.1965 45.6623 25.3998 45.6156 24.605 45.5376C23.5185 45.4311 22.4455 45.2516 21.3954 44.9485C20.9133 44.8094 20.44 44.6452 19.9773 44.4513C19.9644 44.4458 19.9523 44.4377 19.9399 44.4309C19.9323 44.4275 19.9247 44.4239 19.9169 44.4204L19.9161 44.4215Z" fill="#0072AB"></path><path d="M24.0442 23.9756C23.9955 23.9756 23.9644 23.9756 23.9334 23.9756C22.4172 23.9756 20.9008 23.9747 19.3846 23.9776C19.3005 23.9778 19.2814 23.9562 19.2822 23.874C19.2867 23.4433 19.2855 23.0125 19.2829 22.5818C19.2826 22.5197 19.2948 22.499 19.3622 22.499C21.5963 22.5009 23.8305 22.5009 26.0647 22.4994C26.1268 22.4994 26.149 22.5118 26.1478 22.579C26.1442 22.7857 26.148 22.9926 26.1018 23.1959C26.0409 23.4638 25.9151 23.6985 25.7441 23.9126C24.5611 25.3926 23.3798 26.8736 22.1979 28.3545C21.872 28.7627 21.5465 29.1715 21.221 29.5802C21.2036 29.602 21.187 29.6248 21.1593 29.6615C21.2036 29.6615 21.2334 29.6615 21.2634 29.6615C22.8601 29.6615 24.4567 29.6624 26.0534 29.6591C26.1463 29.6589 26.1651 29.686 26.1627 29.7724C26.1565 29.9934 26.1616 30.2146 26.1603 30.4357C26.1582 30.77 25.9132 31.0238 25.5791 31.0391C25.5561 31.0401 25.5332 31.0398 25.5101 31.0398C23.4051 31.0398 21.3003 31.0393 19.1953 31.042C19.1095 31.0422 19.0915 31.0181 19.094 30.9374C19.1007 30.7081 19.0838 30.4774 19.1362 30.2514C19.1817 30.055 19.2777 29.8838 19.4038 29.7276C20.9345 27.831 22.4648 25.9342 23.9951 24.0375C24.0075 24.0225 24.0196 24.0069 24.0442 23.9756Z" fill="#0072AB"></path><path d="M31.8347 25.0441C31.8347 24.9066 31.8371 24.7873 31.8337 24.668C31.8319 24.6111 31.8447 24.5873 31.9083 24.5877C32.3188 24.5904 32.7295 24.5911 33.14 24.5872C33.2159 24.5865 33.2135 24.6234 33.2135 24.6765C33.2126 25.4718 33.2129 26.2671 33.2129 27.0623C33.2129 28.3544 33.2121 29.6462 33.2148 30.9383C33.215 31.0198 33.1976 31.0457 33.1124 31.0429C32.9031 31.0362 32.6933 31.0411 32.4836 31.0407C32.1173 31.0402 31.8935 30.8485 31.8357 30.4864C31.8343 30.4781 31.8312 30.4702 31.8268 30.4547C30.9631 31.0505 30.0223 31.2412 29.0049 30.9811C28.2533 30.7888 27.6446 30.3699 27.1773 29.7512C26.2556 28.5306 26.2884 26.8551 27.2584 25.6415C27.6185 25.1909 28.0718 24.8615 28.607 24.6449C29.1395 24.4294 29.6921 24.362 30.2611 24.4282C30.8326 24.4947 31.3516 24.7015 31.8347 25.0441ZM31.8197 27.7473C31.8185 26.6601 30.939 25.782 29.8528 25.7832C28.7678 25.7846 27.8849 26.6678 27.8866 27.7502C27.8884 28.8318 28.7754 29.7166 29.8573 29.7157C30.9449 29.7149 31.8209 28.8362 31.8197 27.7473Z" fill="#0072AB"></path><path d="M40.2098 24.3481C42.0695 24.3485 43.5839 25.8657 43.581 27.7252C43.5782 29.5815 42.0632 31.0946 40.2093 31.0931C38.3479 31.0915 36.835 29.5753 36.8399 27.716C36.8445 25.8554 38.3529 24.3478 40.2098 24.3481ZM38.2283 27.7357C38.2295 28.831 39.1186 29.7177 40.2133 29.7153C41.3069 29.7129 42.1869 28.8312 42.1879 27.7366C42.1889 26.6367 41.3093 25.7549 40.2102 25.7538C39.1143 25.7528 38.2271 26.64 38.2283 27.7357Z" fill="#0072AB"></path><path d="M35.8614 26.7719C35.8614 28.1617 35.8606 29.5514 35.8637 30.9412C35.8638 31.0271 35.8399 31.0441 35.759 31.0426C35.4835 31.0372 35.2078 31.041 34.9321 31.0405C34.593 31.0398 34.3907 30.8384 34.3907 30.4996C34.3904 27.8636 34.3909 25.2278 34.3887 22.5918C34.3887 22.5116 34.4147 22.4989 34.4866 22.4996C34.9144 22.5028 35.3423 22.5034 35.77 22.499C35.8478 22.4982 35.8633 22.5201 35.8631 22.5942C35.8609 23.9868 35.8614 25.3794 35.8614 26.7719Z" fill="#0072AB"></path><path d="M19.4716 12.0807C19.4694 12.0826 19.4673 12.0861 19.4652 12.0859C19.4631 12.0859 19.4611 12.0825 19.459 12.0804C19.4612 12.0785 19.4633 12.075 19.4654 12.0752C19.4675 12.0752 19.4695 12.0787 19.4716 12.0807Z" fill="#0072AB"></path><path d="M44.2364 39.9175C44.2387 39.9135 44.2409 39.9097 44.2433 39.9058C44.2447 39.909 44.2461 39.9123 44.2476 39.9156C44.2435 39.9158 44.2395 39.9158 44.2354 39.916C44.2352 39.916 44.2364 39.9175 44.2364 39.9175Z" fill="#0072AB"></path><path d="M19.917 44.4209C19.9248 44.4244 19.9326 44.4282 19.9406 44.4317C19.9326 44.4282 19.9248 44.4246 19.917 44.4209Z" fill="#0072AB"></path></svg> 